<?xml version="1.0" encoding="UTF-8"?>
<svg id="Layer_2" data-name="Layer 2" xmlns="http://www.w3.org/2000/svg" viewBox="0 0 1039.27 847.53">
  <defs>
    <style>
      .cls-1 {
        fill: #3c8153;
      }

      .cls-2 {
        fill: #588dc4;
      }

      .cls-3 {
        fill: #312b2a;
      }

      .cls-4 {
        fill: #65a4db;
      }

      .cls-5 {
        fill: #aac1d6;
      }

      .cls-6 {
        fill: #dcecd4;
      }

      .cls-7 {
        fill: #d08a40;
      }

      .cls-8 {
        fill: #65ac6d;
      }

      .cls-9 {
        fill: #f9c395;
      }

      .cls-10 {
        fill: #2f6545;
      }

      .cls-11 {
        fill: #e06c1e;
      }

      .cls-12 {
        fill: #3f8b70;
      }

      .cls-13 {
        fill: #f2c093;
      }

      .cls-14 {
        fill: #e6e8e9;
      }

      .cls-15 {
        fill: #9dbad4;
      }

      .cls-16 {
        fill: #2c6541;
      }

      .cls-17 {
        fill: #69a6db;
      }

      .cls-18 {
        fill: #413939;
      }

      .cls-19 {
        fill: #553528;
      }

      .cls-20 {
        fill: #f8c99c;
      }

      .cls-21 {
        fill: #5fafe1;
      }

      .cls-22 {
        fill: #64ac6c;
      }

      .cls-23 {
        fill: #af561d;
      }

      .cls-24 {
        fill: #f9c79a;
      }

      .cls-25 {
        fill: #d38f44;
      }

      .cls-26 {
        fill: #db514d;
      }

      .cls-27 {
        fill: #dcedd4;
      }

      .cls-28 {
        fill: #f7c495;
      }

      .cls-29 {
        fill: #6ba9de;
      }

      .cls-30 {
        fill: #4784c1;
      }

      .cls-31 {
        fill: #f6eae4;
      }

      .cls-32 {
        fill: #3c8254;
      }

      .cls-33 {
        fill: #e5e7e8;
      }

      .cls-34 {
        fill: #2b6441;
      }

      .cls-35 {
        fill: #fcfcfc;
      }

      .cls-36 {
        fill: #f0b78a;
      }

      .cls-37 {
        fill: #66ad6e;
      }

      .cls-38 {
        fill: #bf5d1b;
      }

      .cls-39 {
        fill: #ba6f31;
      }

      .cls-40 {
        fill: #f8c596;
      }

      .cls-41 {
        fill: #be7233;
      }

      .cls-42 {
        fill: #ebab81;
      }

      .cls-43 {
        fill: #413a39;
      }

      .cls-44 {
        fill: #f8c699;
      }

      .cls-45 {
        fill: #dc5650;
      }

      .cls-46 {
        fill: #fdfdfd;
      }

      .cls-47 {
        fill: #4986c1;
      }
    </style>
  </defs>
  <g id="Layer_1-2" data-name="Layer 1">
    <path class="cls-35" d="M579.54,839.45l-31.44-1.61-.72-4.86c-.02-.41-.08-.84-.19-1.29-.8-5.44-1.01-11.28-3.63-16.21-3.29-6.23-2.14-18.4-2.23-26.45.34-.77,1.78-1.5,2.27-1.87,3.08-1.07,6.76-2.45,9.52-4.93l-2.82-60.23c-5.49-117.63-16.83-234.18-29.78-351.16-1.51-13.61-4.03-26.08-3.19-39.6,1.11-18.03,1.22-35.45,1.07-52.97-.25-28.37-3.08-56.45-9.22-84.59-1.49-6.82-3.96-12.28-7.02-18.43-6.37-12.87-15.63-23.63-27.89-30.41-6.89-3.81-13.76-7.82-21.34-10.24-2.96-.93-5.58-3.53-8.68-4.3-5.42-7.59-8.24-16.54-10.86-25.81-.94-3.31-1.36-5.79-.13-8.7,2.37-5.66,2.38-11.88,3.5-17.74,1.66-8.67,1.82-17.58.75-26.43.18-1.5,1.58-2.21,3.09-2.89,7.69-3.52,14.61-7.81,20.82-13.43,1.83-1.64,2.3-3.35,3.27-5.01,10.15-17.29-32.87-13.13-41.03-12.48-2.15.17-4.25.75-5.69-.56-.79-4.03-2.01-8.03-3.34-12.25-.49-1.51-1.52-1.85-2.55-2.93C410.56.48,408.61.01,405.86,0c-16.61-.06-44.67,5.35-58.62,14.17-2.61,1.64-3.98,4.29-3.16,7.43.2,4.72,1.76,9.22,2.58,14.45-7.86,3.56-39.28,17.45-35.99,28.32,2.69,8.89,35.83,7.34,42.18,6.16.82.19,1.89.16,2.72.09.79,1.58,1.36,3.35,1.71,5.09,1.26,6.28,3.15,12.37,6.03,18.51,1.09,2.34,1.84,4.66,1.63,6.93-1.21,5.63-2.66,11.82-.81,17.8l2.64,8.51c2.71,8.75,10.64,13.21,18.63,15.31-4.54.91-7.87,4.92-12.05,6.4-10.93,3.87-20.7,10.23-30.67,17.28-27.25,19.32-50.95,42.73-71.11,68.95-.9-.28-.84-1.28-.64-2.46,1.51-8.75,8.88-53.71,4.13-57.89-3.24-2.87-9.64,15.39-10.65,18.26-9,25.63-16.09,51.4-20.76,78.19-.45,2.61-.16,5.07-1.91,6.65-11.66-29.39-24.85-58.74-51.04-78.99-21.02-16.27-47.99-21.92-73.37-13.59-29.61,9.71-51.34,38.88-65.61,65.33-21.87,40.54-34.58,89.39-41.38,134.91-8.4,56.12-15.56,127.3-5.21,182.82,5.66,30.35,20.79,58.68,53.77,64.37,18.68,3.22,37.38.59,55.22-5.75,5.12-1.82,9.86-2.83,14.63-4.14.39.1.75.15,1.07.15.03,0,.05.02.08.03.34.2.57.71.57,1.51l.02,70.78c-.49-.37-.63.32-.88,1.12v140.2s-35.93,1.74-35.93,1.74c-7.46.36-14.52.43-21.76,3.05,6.84,2.48,13.26,2.7,20.15,2.93l67.55,2.2,175.19.3,74.52.03,77.83-.02,93.14-2.89c5.31-.16,10.15-.15,15.1-2.36-5.16-2.34-10.41-2.15-15.86-2.43ZM253.43,314.91l2.44-.7c15.29-19.46,32.04-38.77,49.59-56.81,13.54-13.92,31.72-21.09,50.03-26.35.96,1.11,2.02,1.71,3.2,1.84l-1.72,2.07c.86,19.59,2.34,39.13,4.46,58.62l1.85,1.75c-1.67.58-1.61,1.54-1.42,2.82-18.64,9.36-38.06,16.75-58.28,22.17l-2.07,1.68-1.29-1.48c-14.57,2.73-29.23,4.11-43.96,4.16l-1.04,1.46-1.31-5.2c-.49-1.95-.57-4.02-.48-6.03ZM139.08,264.46c2.74-25.67,16.87-19.62,16.94,3l-1.53,17.19,1.62,1.12-2.73.33c-4.48,5.44-9.3,10.17-14.47,14.21-.92-11.3-.89-22.6.08-33.89l-1.68-.85,1.77-1.11ZM364.71,339.56l-19.37,233.27c-5.7,69.39-7.98,141.31-7.27,208.31,4.96,4.61,11.13,7.41,18.49,8.36l2.21-1.36c.61.34,1.17.59,1.66.74h.04s.96.44.96.44c0,6.13-.1,12.64-1.73,18.46-3.57-.82-15.22,13.24-25.18,15.77l-22.61,5.75c-3.94,1-6.86,3.75-7.01,7.49l-9.3-1.3c-52.41-2.08-104.95-1.39-157.38-.18l-.27-127.06-1.72-.6,1.72-1.03c.1-27.5.21-54.98.32-82.45l.56.43c9.53.12,18.43,3.19,26.1,8.65,18.85,15.11,38.68,27.54,64.38,22.21,26.28-5.44,37.35-34.44,41.78-58.19,13.61-73,4.3-154.16-5.92-227.37-.11-.77-.48-1.5-.88-2.26-.39-.76-.9-1.47-1.44-2.16-.2-1.52-.35-2.51,1.09-3.2,4.54,6.76,9.48,13.35,14.86,19.82,1.91,2.3,5.75,1.64,7.65.49,1.91-1.16,3.8-4.34,2.11-6.71l-13.84-19.21c10.74-8.87,18.57-7.8,30.89-8.41.95.39,1.89.75,2.87.98.95.23,1.9.43,2.84.39,16.2-.78,34.59-4.09,50.23-8.43.9-.25,1.74-.74,2.58-1.27.22-.14.43-.28.64-.42l-.06.05ZM512.11,810.19c-9.7,11.94-21.17,15.83-35.64,19.09-1.24.38-2.42.89-3.56,1.51-2.11,1.15-5.18,2.85-3.82,5.36l-1.05-1.71-70.64.6c-.84-2.1-2.01-3.24-3.51-3.44.44-4.65-2.72-13.66-4.34-18.04-2.55-6.94.56-17.49.41-24.69,6.3-.48,12.58-1.45,18.91-3.44l10.57-98.05,10.84-115.75,8.62-95.74c.1-1-.59-1.97-.05-2.62.21-.24.93-.06,1.26-.07-.73,2.69-.5,7.34-.2,10.56,16.19,100.23,34.13,203.28,54.84,302.41,3.17,2.57,12.11,6.57,15.42,3.69.16,1.34,1.04,2.45,2.62,3.34l.39,14.54,1.51,2.35-2.58.1Z"/>
    <path class="cls-32" d="M156.11,285.77l-2.73.33c-4.48,5.44-9.3,10.17-14.47,14.21-.92-11.3-.89-22.6.08-33.89l-1.68-.85,1.77-1.11c2.74-25.67,16.87-19.62,16.94,3l-1.53,17.19,1.62,1.12Z"/>
    <path class="cls-35" d="M1019.41,428.77c-8.42-20.54-8.5-41.91-2.47-62.95,4.92-17.17,9.86-33.31,12.25-51.09,2.95-21.88,3.07-43.48.94-65.43-1-10.34-3.58-19.81-7.38-29.15-5.3-13.04-14.57-22.35-26.23-29.82-10.58-6.78-16.5-19.03-17.74-31.47-1.75-17.39-5.49-33.88-14.88-48.63-3.37-5.29-7.47-10.36-13.74-12.06-5.97-1.6-12.31,1.03-16.89,5.3-12.05,11.25-17.6,27.37-17.96,43.75-.33,15.42-9.16,27.16-20.61,36.53-11.46,9.38-18.39,22.61-23.31,36.44-6.7,18.85-8.13,38.03-7.3,57.99.71,17.33,4.86,33.1,12.84,48.21,9,17.04,6.64,36.12-4.84,51.15-5.96,7.81-10.69,16.09-14.17,24.83-14.75-11.75-31.78-19.33-50.95-22.2-37.92-5.7-70.21,13.64-85.03,48.4-9.23,21.66-15.84,57.2-6.88,79.22,3.9,9.6,12.28,15.48,22.78,15.99,13.09.62,24.42-7,35.24-13.32,13.48-7.89,24.37-6.47,39.02-6.35,3.05,12.92,3.7,26.21,5.23,40.08-32.14-6.19-59.63,3.6-87.79,19.31-12.82,7.15-24.84,14.96-35.14,25.42-13.15,13.36-21.02,30.38-19.46,49.33,2.36,28.8,26.1,51.78,55.11,53.28,11.04.57,21.57-2.58,31.11-7.78,15.6-8.52,31.67-14.63,48.96-17.18-8.32,64.04-9.25,103.83-5.51,169.42-.29.26-.52.52-.71.8-.1.05-.21.09-.34.09-16.59.47-32.82.81-49.44,2.46-3.79.38-7.38.18-10.74,2.66,7.6,2.09,14.37,2.77,22.17,3.13,71.46,3.2,142.61,3.19,214.13.14,8.35-.35,15.55-1.01,23.85-3.2-3.27-2.77-7.06-2.29-10.93-2.71-17.28-1.85-34.19-1.78-51.09-2.47-2.67-33.09-5.02-66.24-4.88-99.45,35.38,1.71,46.8-45.66,51.84-73.33,6.19-33.96,15.4-58.85,35.47-86.93,5.72-8.01,9.4-16.44,11.67-26.1,9.55-40.72-.63-84.44-16.16-122.29ZM933.8,828.62l1.74.51-1.7,1.28c.18,1.98-.16,3.53-1.03,4.65l-120.16-.09c-.09-4.33-1.12-6.03-3.07-5.07.7-3.11,1.36-6.28,1.33-9.48-3.04-48.82.77-97.26,5.09-145.81.28-3.22-.04-6.46-.47-9.66,17.53-.98,26.36-2.59,44.02,3.8,6.24,2.26,12.19,4.55,18.65,6.14,1.26.31,2.37.66,3.25,1.27,0,0,.02,0,.03.02.25.25.51.49.8.72l-.92,2.31c4.86,15.46,14.11,35.77,26.51,46.41,4.68,4.02,14.12,10.27,20.11,11.2,1.06.16,2.12-.39,3.07-.88l-1.66,1.13c1.47,30.52,2.95,61.04,4.43,91.55ZM819.96,510.98c-.15-.76-.57-1.47-1.03-2.2-.45-.74-1.01-1.42-1.61-2.09l2.04-.85c11.9-.39,23.56-2.17,34.94-5.32l1.52-1.56c-.23.86-.43,1.73-.51,2.61-.08.86-.14,1.7.07,2.46,5.51,19.71,13.8,37.23,23.46,55.01,2.49,5.71,3.72,11.85,4.71,17.96-14.42-12.55-38.87-28.61-57.12-32.53-.6-.13-1.23-.04-1.89.08-.69.14-1.36.39-2.03.67.38-.76.72-1.53.95-2.33,1.58-5.48-2.12-25.04-3.51-31.91Z"/>
    <path class="cls-14" d="M410.78,845.76l-1.45,1.39-74.52-.03-175.19-.3-67.55-2.2c-6.88-.23-13.31-.45-20.15-2.94,7.24-2.62,14.3-2.69,21.76-3.05l35.94-1.74v-140.2c.24-.8.39-1.49.87-1.12l-.06,140.28c0,1.83-.89,3.66.57,4.38,1.11.54,3.02.51,4.11.03,1.63-.7.53-2.58.53-4.38l-.05-126.39c0-1.03-.03-1.88.65-1.83l1.71.6.27,127.05c52.43-1.21,104.97-1.89,157.37.18l9.31,1.3c.39.69.89,1.31,1.58,1.73,12.49,7.74,50.97,3.55,63.65,0,3.15-.47,5.66.26,3.31,3.33.31.09.62.16.93.23.03,0,.05,0,.08.02.29.06.58.11.88.16.42.07.85.13,1.27.17,0,0,.02,0,.02,0,.21.02.43.03.65.04.21.03.43.03.64.03.65.03,1.3.02,1.95-.03t.02,0s.06,0,.09,0c.38-.03.75-.06,1.13-.1.04,0,.09,0,.15-.02.4-.05.8-.11,1.2-.18.43-.08.86-.16,1.28-.26.83-1.66,2.77-2.39,5.83-2.17,1.46-.9,2.77-1.14,3.95-.73.15.09.3.15.47.2.35-2.44,5.58-2.1,8.07-1.79,6.68.81,7.72,1.58,8.74,8.32Z"/>
    <path class="cls-14" d="M1003.5,842.05c-8.3,2.19-15.5,2.85-23.85,3.2-71.52,3.06-142.66,3.07-214.13-.14-7.8-.35-14.57-1.04-22.17-3.13,3.36-2.48,6.94-2.29,10.74-2.66,16.62-1.64,32.86-1.99,49.44-2.46.13,0,.24-.03.34-.09.42-.19.63-.69.71-.8.08,1.36.45,2.96.86,3.89.55,1.19,4.62,1.04,4.56-.26l-.42-9.7c1.95-.96,2.98.74,3.07,5.07l120.16.09c.86-1.12,1.21-2.67,1.03-4.65l1.7-1.28c1.76-.28-.65,10.63,2.15,11.04,1.16.16,2.79.54,3.48-.54.49-.78.34-1.92.31-2.77,16.89.68,33.81.62,51.09,2.47,3.87.42,7.66-.06,10.93,2.71Z"/>
    <path class="cls-33" d="M595.4,841.88c-4.96,2.21-9.8,2.19-15.1,2.35l-93.14,2.89-77.83.02-1.1-5.02c-1.02-4.65-11.62-5.06-14.27-2.9-.15-.08-.31-.15-.47-.2-1.75-.94-1.86-3.88.18-4.65-1.24-.31-1.78-.92-1.68-1.51.09-.54.74-1.06,1.89-1.28,1.5.2,2.67,1.34,3.51,3.44l70.64-.6,1.04,1.7c-.63.78-.28,2.48-.09,3.31.29,1.22,1.99,1.64,3.24,1.99,12.51,3.46,34.91,2.29,47.29-.33h.03c3.36-1.16,6.7-1.68,10.02-1.55.21,0,.41,0,.62.03.31,1.97,2,2.53,5.08,1.7,4.75-.28,9.03-1.44,12.83-3.46l31.44,1.61c5.45.28,10.69.09,15.86,2.43Z"/>
    <path class="cls-46" d="M271.09,597.27c-4.43,23.74-15.5,52.75-41.78,58.19-25.71,5.33-45.53-7.11-64.38-22.21-7.66-5.46-16.57-8.53-26.1-8.66l-.56-.43c-.11,27.48-.22,54.96-.33,82.45l-1.71,1.04.33-84.79c24.86-.15,32.14,13.23,50.1,23.58,11.62,6.69,24.45,9.68,37.74,8.11,27.04-3.2,37.56-27.21,43.43-50.78,16.83-67.51,4.21-169.28-4.98-238.3.54.69,1.04,1.4,1.44,2.17.4.75.77,1.49.88,2.26,10.22,73.2,19.53,154.37,5.92,227.37Z"/>
    <path class="cls-46" d="M262.85,365.48c-.75-1.83-1.04-3.02-.86-3.55.18-.54.83-.42,1.95.35-1.44.69-1.28,1.69-1.09,3.2Z"/>
    <path class="cls-46" d="M286.45,382.59c-1.9,1.16-5.74,1.82-7.66-.49-5.38-6.46-10.32-13.06-14.86-19.82.59.32,1.18.64,1.76,1,.91.57,1.75,1.22,2.41,2.06,3.86,5.38,7.78,10.75,12.08,15.77,2.07,2.43,8.42-.43,7.13-3.97l-13.27-18.47.32-.95h0s.35-1.04.35-1.04l13.84,19.21c1.7,2.36-.2,5.55-2.11,6.7Z"/>
    <path class="cls-46" d="M304.9,836.79c-55.97-1.04-111.9-1.23-168.39.15l-.27-129.28,1.71.6.27,127.05c52.43-1.21,104.97-1.89,157.37.18l9.31,1.3Z"/>
    <path class="cls-46" d="M305.61,348.26c-12.32.62-20.16-.45-30.89,8.41-.14-.89,0-1.72.41-2.51,2.89-5.5,22.45-8.13,28.68-7.54.03,0,.06,0,.09,0l1.72,1.64Z"/>
    <path class="cls-46" d="M359.7,807.78l-.51,1.7c-7.38,6.09-15.26,11.28-23.63,15.57l-24.45,6.3-2.89,1.87c-.57,1.3-1.28,2.27-2.09,2.89-.38.31-.79.53-1.22.69.15-3.73,3.07-6.49,7-7.49l22.61-5.75c9.96-2.53,21.61-16.59,25.17-15.77Z"/>
    <path class="cls-46" d="M362.08,805.14c-.44,1.34-.75,2.22-2.38,2.64,1.64-5.81,1.73-12.33,1.73-18.46l-.96-.43h-.03c-.5-.15-1.05-.41-1.66-.74,1.17.44,2.23.35,3.2-.27.14.33.27.69.39,1.07,1.28,4.32,1.01,12.19-.28,16.19Z"/>
    <path class="cls-46" d="M339.61,781.01c5.71,4.07,12.57,6.08,19.16,7.13l-2.21,1.35c-7.36-.95-13.53-3.74-18.5-8.36-.7-66.99,1.58-138.92,7.27-208.31l19.37-233.27.06-.05c-.21.15-.42.28-.63.42-.84.53-1.68,1.03-2.58,1.28-15.64,4.33-34.04,7.65-50.24,8.43-.93.04-1.88-.15-2.83-.39-.98-.23-1.93-.59-2.87-.98,20.42-1.02,41.13-4.58,60.93-10.19l-13.87,165.21c-6.45,76.79-12.64,153.01-12.9,229.86l-.17,47.87Z"/>
    <path class="cls-46" d="M810.91,820.43c.03,3.2-.63,6.37-1.33,9.48-2.41-54.94-1.64-109.84,5.94-164.95.43,3.2.75,6.44.47,9.66-4.32,48.56-8.13,97-5.09,145.81Z"/>
    <path class="cls-46" d="M815.53,664.95l1.95-1.67.19-.16c17.55-3.54,37.5,1.34,53.79,8.04,3.4.37,6.15,1.34,8.22,2.95,0,0,0,0,0,0,1.02.78,1.88,1.7,2.59,2.78-.28-.23-.55-.47-.8-.72,0,0-.02,0-.03-.02-.88-.61-2-.96-3.25-1.27-6.46-1.59-12.41-3.88-18.65-6.14-17.66-6.4-26.49-4.79-44.02-3.8Z"/>
    <path class="cls-46" d="M881.36,679.21l.92-2.31c8.41,20.89,16.29,50.19,48.76,59.04-.94.5-2,1.04-3.07.88-5.99-.93-15.42-7.18-20.11-11.2-12.4-10.64-21.66-30.95-26.51-46.41Z"/>
    <path class="cls-46" d="M929.38,737.07l1.66-1.13,4.5,93.2-1.74-.51c-1.47-30.52-2.95-61.04-4.43-91.55Z"/>
    <path class="cls-46" d="M935.15,836.77l-124.36-.09h-.47c0-.14,0-.27.02-.4.15-2.91.71-5.09-.75-6.38,1.95-.96,2.98.74,3.07,5.07l120.16.09c.86-1.12,1.21-2.67,1.03-4.65l1.7-1.28c.12,2.38-.34,4.93-.39,7.64Z"/>
    <path class="cls-46" d="M823.47,542.89c-.23.8-.57,1.57-.95,2.33-1.03-12.65-2.31-25.41-5.2-38.53.6.67,1.16,1.34,1.61,2.09.45.73.87,1.44,1.03,2.2,1.39,6.88,5.09,26.43,3.51,31.91Z"/>
    <path class="cls-46" d="M819.36,505.84l-2.04.85c0-.63-.24-1.52.27-2.55,10.81.23,21.48-1.65,32.09-4.38,2.25-.57,4.23-1.25,6.15-.8l-1.52,1.56c-11.39,3.14-23.04,4.92-34.94,5.32Z"/>
    <path class="cls-46" d="M885.56,580.3c-7.42-4.38-13.53-10.53-21.02-15.56-13.17-8.84-26.94-15.87-42.02-19.52.67-.28,1.34-.53,2.03-.67.66-.12,1.29-.21,1.89-.08,18.26,3.92,42.7,19.98,57.12,32.53-.98-6.11-2.22-12.25-4.71-17.96-9.66-17.78-17.95-35.3-23.46-55.01-.21-.75-.15-1.59-.07-2.46.08-.88.27-1.75.51-2.61,4.44,17.75,11.18,34.95,20.48,51.09,5.78,10.03,8.3,19.48,9.25,30.24Z"/>
    <path class="cls-46" d="M389.56,813.56c-2.36-.8-3.27-3.27-2.71-7.42l1.4-16.05,1.71-1.22c.15,7.2-2.95,17.75-.4,24.69Z"/>
    <path class="cls-46" d="M393.89,831.6l-1.67-.91c-.56-5.39-1.88-10.63-3.96-15.7l.08-.09,1.22-1.34c1.62,4.38,4.78,13.39,4.33,18.04Z"/>
    <path class="cls-46" d="M438.85,473.27c-.54.64.15,1.62.05,2.61l-8.62,95.75-10.84,115.74-10.57,98.05c-6.34,2-12.61,2.96-18.92,3.44,2.77-1.99,6.26-3.01,10.47-3.08l6.85-1.58c11.17-102.68,21.13-205.45,29.92-308.32-.51-1.83.11-3.65,1.02-4.03h0c.58-.27,1.28.05,1.89,1.34-.33.02-1.05-.17-1.26.08Z"/>
    <path class="cls-46" d="M394.79,836.78c.97-2-.91-3.84-.91-5.07v-.11c1.51.2,2.68,1.34,3.52,3.44l70.64-.6,1.04,1.7-74.3.63Z"/>
    <path class="cls-46" d="M510.17,789.86c-3.31,2.89-12.25-1.11-15.42-3.69-20.7-99.12-38.65-202.17-54.84-302.41-.3-3.22-.53-7.86.2-10.56l5.78,39.77,35.42,198.68,14.58,73.43c4.79,2.65,9.38,4.28,14.27,4.78Z"/>
    <path class="cls-46" d="M514.69,810.09c-19.68,18.91-14.12,13.49-37.68,20.82-3.27,1.01-5.95,2.83-7.92,5.24-1.35-2.51,1.71-4.2,3.83-5.36,1.14-.62,2.32-1.12,3.56-1.51,14.46-3.26,25.94-7.15,35.64-19.09l2.58-.1Z"/>
    <path class="cls-46" d="M514.69,810.09l-1.51-2.35-.39-14.55c-1.58-.88-2.46-2-2.62-3.34l.18.03c1.1.21,2.25,1.28,4,.82.39,6.82,1.06,13.07.34,19.39Z"/>
    <path class="cls-46" d="M253.91,320.94c-2.14-.37-2.85-3.01-1.95-4.74.3-.58.8-1.06,1.47-1.3-.09,2.01,0,4.08.48,6.04Z"/>
    <path class="cls-46" d="M253.91,320.94l1.31,5.2c-.35-.02-.65-.12-.9-.29-.45-.33-.73-.86-.86-1.5-.04-.2-.07-.39-.09-.61-.08-.96.13-2.03.54-2.8Z"/>
    <path class="cls-46" d="M300.22,320.52l1.29,1.47c-4.62,1.12-41.73,6.17-46.29,4.14l1.04-1.46c14.73-.04,29.39-1.43,43.96-4.15Z"/>
    <path class="cls-46" d="M255.87,314.21l-2.44.69c2.41-4.18,5.78-7.54,9.09-11.6,13.37-16.41,26.72-32.14,41.73-47.12,15.46-15.42,32.59-21.42,52.87-27.4.24-.07.49-.15.74-.21-.51,1.79.69,3.08.82,4.14,0,.06,0,.11,0,.17h0c-1.17-.12-2.23-.73-3.19-1.83-18.32,5.26-36.49,12.43-50.03,26.35-17.55,18.04-34.3,37.35-49.59,56.81Z"/>
    <path class="cls-46" d="M356.97,234.96l1.71-2.06c-.13,16.95,3.39,46.83,4.6,62.44l-1.86-1.76c-2.12-19.49-3.6-39.03-4.45-58.62Z"/>
    <path class="cls-46" d="M362.84,299.43c-19.46,10.7-40.15,17.45-61.33,22.57l2.07-1.68c20.22-5.42,39.64-12.81,58.28-22.17-.19-1.28-.26-2.24,1.42-2.82.07.95.76,3.43-.45,4.09Z"/>
    <path class="cls-1" d="M1035.57,551.06c-2.27,9.66-5.95,18.09-11.67,26.1-20.06,28.08-29.28,52.97-35.47,86.93-5.04,27.67-16.46,75.04-51.84,73.33-.44-.92-.85-1.84-1.14-2.8-.28-.94-.56-1.88-.57-2.8-.35-23.72-.53-47.09,1.26-70.77.64-8.56,2.14-13.39,6.79-20.44,4.86-7.36,11.12-13.72,17.37-19.9,9.71-8.28,18.71-17.03,27.01-26.26-2.42,2.6-4.98,5.08-7.76,7.31-3.19,1.27-3.41-.88-3.62-3.41-1.56,9.67-7.78,14.96-15.24,20.95-7.18,6.64-13.09,14.38-18.86,22.23-.78.78-1.51,1.35-2.06,1.22-2.52-.62-.38-11.92.24-14.78,13.61-51.21,14.87-103.69,10.05-156.44l5.15-8.02c5.34-10.53,4.86-10.15-1.42,1.16-1.49,2.06-2.55,1.54-4.23.2l-7.91-54.9c-1.52-20.87.94-41.47,7.38-61.81,2.64-17.91,3.69-35.83,3.16-53.74,8.45-16.94,13.09-26.26,13.93-27.96-.75,1.41-4.2,7.97-10.37,19.67-1.52,1.88-2.59,1.42-4.2.14l-3.48-74.4c1.46,37.35,2.24,74.75,2.36,112.21.2,5.81-.76,11.1-2.89,15.88-1.51-1.1-2.7-2.47-3.55-4.12,1.7,4.65,3.07,9.51,2.94,14.45l-7.26,32.77c-1.54,8.56-1.22,17.3-.09,25.89,8.71,45.49,13.02,92.2,11.04,138.62-.21,3.25-1.24,3.57-3.78,2.77-10.41-22.19-19.98-45.01-28.69-68.46-3.76-15.81-5.32-17.77-.62-.88,2.08,7.45,4.61,14.76,7.7,21.86l20.11,45.68c4.34,9.66,5.31,19.66,3.09,29.99-4.85,24.84-9.4,49.72-13.67,74.62-1.13,27.4-1.79,54.66-1.97,81.77l-1.72,1.01c-.94.5-2,1.04-3.07.88-5.99-.93-15.42-7.18-20.11-11.2-12.4-10.64-21.66-30.95-26.51-46.41l.92-2.31c-.28-.23-.55-.47-.8-.72,0,0-.02,0-.03-.02-.7-.67-1.28-1.34-1.76-2.05,0,0,0,0,0,0-1.5-2.2-2.12-4.65-2.82-7.85-2.56-11.86-1.59-24.16-.09-36.12,3.14-16.18,5.53-32.34,7.15-48.49l1.64-1.34-1.85-2.38c-.05-.31-.09-.61-.15-.92-.98-6.11-2.22-12.25-4.71-17.96-9.66-17.78-17.95-35.3-23.46-55.01-.21-.75-.15-1.59-.07-2.46.08-.88.27-1.75.51-2.61-.55-.43-1.08-.88-1.52-1.4-.43-.52-.83-1.01-.96-1.57-6.88-30.03-8.03-61.42,1.7-90.94.18-.54.64-.98,1.14-1.46.51-.48,1.09-.86,1.7-1.23,3.49-8.74,8.21-17.02,14.17-24.83,11.47-15.04,13.84-34.11,4.84-51.15-7.97-15.1-12.12-30.88-12.84-48.21-.82-19.96.61-39.14,7.3-57.99,4.92-13.83,11.85-27.07,23.31-36.44,11.45-9.37,20.28-21.11,20.61-36.53.36-16.38,5.92-32.5,17.96-43.75,4.58-4.27,10.93-6.9,16.89-5.3,6.28,1.7,10.37,6.76,13.74,12.06,9.39,14.75,13.14,31.24,14.88,48.63,1.24,12.44,7.16,24.69,17.74,31.47,11.65,7.48,20.93,16.78,26.23,29.82,3.8,9.33,6.38,18.81,7.38,29.15,2.12,21.95,2,43.55-.94,65.43-2.4,17.78-7.33,33.93-12.25,51.09-6.03,21.04-5.94,42.41,2.47,62.95,15.52,37.86,25.71,81.57,16.16,122.29Z"/>
    <path class="cls-16" d="M981.45,603.2c-11.16,11.34-40.89,34.35-43,52.31-3.25,27.6-1.76,54.83-1.86,81.91-.14,33.21,2.21,66.36,4.88,99.45,1.7.11,2.29,1.63,1.45,2.96-3.15,5.02-10.8.71-7.22-3.51.29-2.47.24-4.86-.16-7.18l-1.74-.51c-1.47-30.52-2.95-61.04-4.43-91.55l1.66-1.13,1.02-61.59c.17-10.16.31-19.67,2.15-29.52l8.62-46c6.77-36.13,8.33-33.38-5.69-64.87l-12.66-28.45c-7-15.73-11.61-32.02-13.26-49.24-.11-1.21.68-2.12,1.38-2.11.43,0,1.45.38,1.56,1.23,2.24,17.12,7.11,33.09,14.14,48.96l20.4,46.02c1.56-22.54.35-44.15-.91-66.5-1.16-20.7-3.74-40.36-7.6-60.68-2.77-14.55-4.94-28.93-1.65-43.22l6.39-27.67c2.47-10.74-10.96-36.61-19.73-44.19-6.96-6.03-15.59-9.89-19.92-19.18,4.58.84,10.66,10.74,16.72,11.56-6.02-13.85-10.45-27.22-11.83-41.92-.09-1.06.4-1.7.67-2.07s2.09-.04,2.18.64c2.71,21.13,10.25,40.45,22.13,58.12,5.17,7.69,8.9,15.31,12.03,23.92,2.14-14.33,2-27.28,1.61-41.39l-3.06-107.5c-.03-1.16,1.59-1.1,1.97-.8.35.27,1.04.49,1.1,1.63l4.46,95.65c9.39-14.2,15.41-30.35,21.38-46.02-2.54,20.18-11.17,37.31-20.88,54.17l-.13,26.11c-.21,39.07-15.95,50.95-9.53,94.88l7.24,49.48c6.57-11.01,12.09-21.31,15.81-32.64,1.19-3.63-1.16-29.22,4.23-35.99.94,10.87-2.24,17.38.28,29.57,7.99-8.76,11.45-20.04,11.96-31.77.03-.76.09-1.47.52-1.87.39-.34,1.01-.35,1.11.15,3.55,16.87-6.46,29.78-14.84,42.36-7.6,11.41-9.65,25.63-18.8,36.68,2.12,22.83,2.78,44.33,2.56,67.27-.23,24.99-3.51,48.77-8.98,73.02-2.24,9.98-4.63,19.18-5.37,29.73,7.83-12.24,16.95-22.17,27.82-31.01,6.43-5.24,8.49-19.21,7.12-28.51,4.72,5.6,2.74,12.36,2.77,18.86,6.64-5.3,11.72-11.39,16.81-17.71.8-.99,1.85-1.36,2.74-.7,3.06,2.26-13.1,17.78-15.64,20.37Z"/>
    <path class="cls-8" d="M821.11,580.04c0,6.91-.75,41.87-3.74,43.42-3.48,1.8-18.09-9.23-21.52-12.18-13.2-11.37-17.28-20.95-23.44-36.51-.12-.3-.45-.29-.44-.27,7.05,25.12,23.27,39.18,45.24,52.23-.62,12.34-2.26,24.58-4.94,36.71l-2.17,3.11c-17.29,2.54-33.36,8.66-48.96,17.18-9.54,5.21-20.07,8.36-31.11,7.78-29.01-1.5-52.75-24.48-55.11-53.28-1.56-18.95,6.31-35.97,19.46-49.33,10.3-10.46,22.32-18.27,35.14-25.42,28.16-15.71,55.65-25.5,87.79-19.31.55.93,1.06,1.88,1.46,2.86.39.98.75,1.94.86,2.93,1.08,9.95,1.46,20.07,1.48,30.07Z"/>
    <path class="cls-37" d="M855.83,498.96l-1.52,1.56c-11.39,3.14-23.04,4.92-34.94,5.32l-2.04.85c-.65.15-1.68.21-1.79-.2-1.04-3.77-7.47-30.87-6.75-32.36,10.52-11.17,13.76-25.24,11.02-40.08.39,10.27.73,24.76-6.35,33.2-2.51,2.98-4.85,5.5-6.84.49-3.92-14.39-8.59-28.06-14.01-41.01,8.91,22.62,15.34,46.33,19.94,70.3.21,1.11.14,2.29.06,3.48-.08,1.21-.28,2.4-.52,3.59-14.65-.12-25.54-1.53-39.02,6.35-10.81,6.32-22.14,13.94-35.24,13.32-10.5-.51-18.87-6.39-22.78-15.99-8.97-22.02-2.35-57.57,6.88-79.22,14.81-34.76,47.11-54.1,85.03-48.4,19.17,2.88,36.2,10.46,50.95,22.2-11.57,29.02-9.56,66.67-2.07,96.6Z"/>
    <path class="cls-10" d="M858.07,595.24c-9.13,18.02-22.94,35.12-38.12,48.32l-2.47,19.72-.09.67-1.87,1c.43,3.2.75,6.44.47,9.66-4.32,48.56-8.13,97-5.09,145.81.03,3.2-.63,6.37-1.33,9.48.6,1.96.77,4.02.52,6.21.08.05.15.11.23.17.16.12.32.26.45.4,2.17,2.18.72,5.66-3.06,5.69-3.48.03-5.57-3.11-3.86-5.6.19-.28.42-.55.71-.8-3.73-65.59-2.81-105.38,5.51-169.42,1.68-12.91,5.16-25.62,5.74-39.11-21.74-12.3-38.91-27.26-45.31-51.83-.34-1.32-.15-2.37,1.05-2.68,1.08-.27,2.14.21,2.53,1.58,6.19,21.64,21.66,38.39,42.48,48.03,3.65-26.59,3.58-52.59.73-78.36-1.53-13.87-2.18-27.16-5.23-40.08-4.5-25.94-11.09-50.84-20.46-75.17-.59-1.54-1.42-2.97.06-3.72.7-.34,2.47-.81,2.97.48,5.59,14.5,9.62,29.02,14.34,44.04,3.73-3.43,5.73-7.64,7.25-12.18,4.66-13.87-.54-24.9,3.17-25.23.67-.06,1.93.39,2.11,1.64,2.39,16.54-.05,28.78-11.24,40.7l7.04,32.05c.6.67,1.16,1.34,1.61,2.09.45.73.87,1.44,1.03,2.2,1.39,6.88,5.09,26.43,3.51,31.91-.23.8-.57,1.57-.95,2.33l1.4,3.46c3.44,27.39,1.18,55.28-1.59,82.69,4.6-4.6,8.91-9.44,12.95-14.53-2.8-8.89-3.6-34.33,1.74-41.38,1.79-2.37,5.82-.41,6.04,2.89-2.67,10.16-3.21,20.08-1.64,29.76l11.16-17.39c3.49-2.86,7.54.48,5.49,4.53Z"/>
    <path class="cls-22" d="M880.69,672.97l1.58,3.93c-.24-.27-.51-.51-.8-.72,0,0-.02,0-.03-.02-.88-.61-2-.96-3.25-1.27-6.46-1.59-12.41-3.88-18.65-6.14-17.66-6.4-26.49-4.79-44.02-3.8l3.07-22.3c15.64-13.46,27.91-29.88,37.92-48.16.68-1.23.55-2.35-.28-2.89-.92-.59-2.08-.39-2.81.73-4.32,6.66-7.84,13.49-13.13,20.08-3.11-11.17-1.4-22.04,1-33,.25-1.12-.27-2.43-.81-2.87-.51-.4-2.23-.67-2.55.45-3.77,13.18-4.31,26.65-1.09,40.15-5.06,6.63-9.86,13.08-17.09,18.6,4.34-30.32,5.24-59.84,2.76-90.52.67-.28,1.34-.53,2.03-.67.66-.12,1.29-.21,1.89-.08,18.26,3.92,42.7,19.98,57.12,32.53.23.2.45.39.68.59l1.32,2.71c1.56,17.72-15.94,65.19-4.87,92.67Z"/>
    <path class="cls-27" d="M271.57,235.4c-1.26,1.64-1.78,3.31-2.28,5.75-3.93,19.48-9.75,38.03-17.57,55.85-.36.39-.98.63-1.72.77-3.38.6-9.64-1.23-9.29-4.06-1.17-.59-1.72-1.59-1.63-3.01h0c.07-1.27.63-2.86,1.7-4.78.02-2.56,2-5.16.96-7.77,1.76-1.58,1.46-4.03,1.92-6.64,4.67-26.79,11.76-52.57,20.76-78.19,1.01-2.87,7.41-21.12,10.65-18.26,4.74,4.18-2.62,49.14-4.14,57.89-.2,1.17-.26,2.17.64,2.46Z"/>
    <path class="cls-45" d="M251.72,297c-2.19,5-2.26,11.21-3.24,16.46.54,1.56.85,3.26.92,5.11,1.45,1.65,2.29,3.32,2.54,5.01,1.58.14,2.58,1.76,3.01,4.87.74,1.94-6.19,7.69-8.27,10.38-.58-.98-1.51-2.56-3.06-2.16l-11.19,56.16c-.81,4.06-4.24,6.17-7.2,5.62-3.76-.7-5.72-4.2-5-8.2l5.11-28.11-.77-5.02,7.84-34.77-4.16-5.73c-1.7-1.28-2.35-2.66-1.92-4.13-.81-2.21-2.01-5.12-3.43-6.98,2.85-2.51,6.09-4.55,9.27-6.62,1.45-.89,3.01.21,4.68,3.31.04-3.68.88-6.59,2.52-8.72l1.35.22c3.28,2.02,7.38,2.02,11.01,3.29Z"/>
    <path class="cls-9" d="M225.33,362.14c-18.27-2.32-5.86-41.06.99-49.64,3.25,2.05,5.23,6.04,7.69,9.67-2.4,13.71-6.27,26.71-8.68,39.97Z"/>
    <path class="cls-13" d="M253.37,323.74c-.13.09-.28.15-.46.15-.27,0-.59-.1-.97-.32-3.79-1.88-6.06-6.46-3.46-10.13,1.42,1.05,3.29.98,4.95,1.46-.09,2.01,0,4.08.48,6.04.1,1.52-.08,2.45-.54,2.8Z"/>
    <path class="cls-26" d="M286.45,382.59c-1.9,1.16-5.74,1.82-7.66-.49-5.38-6.46-10.32-13.06-14.86-19.82,3.64-1.76,6.76-5.31,10.78-5.61l13.84,19.21c1.7,2.36-.2,5.55-2.11,6.7Z"/>
    <path class="cls-30" d="M547.38,832.98c.21,3.78-3,5.71-9.59,5.83-2.75.18-5.49.43-8.21.76-3.37.39-6.7.91-10.02,1.54h0s-1.39,2.02-1.39,2.02c-8.89,1.82-43.14,4.25-49.13-1.09-1.97-1.75-3.49-5.61.05-5.9-1.35-2.51,1.71-4.2,3.83-5.36,1.14-.62,2.32-1.12,3.56-1.51,14.46-3.26,25.94-7.15,35.64-19.09l2.58-.1c1.67-1.88,4.28-1.85,7.85.1,4.02,3.06,8.29,4.63,12.82,4.72,3.37-.86,6.11-.67,8.2.57,2.61,4.92,2.83,10.76,3.63,16.21.1.45.16.87.19,1.28Z"/>
    <path class="cls-15" d="M545.34,841.22c-20.47,4.56-14.59-.16-16.95-.97-.79-.27-8.35.84-8.84.87h-.02s.02,0,.03,0c8.2-3.78,18.2-3.03,27.18-6.1.63-.76.32-2.65.45-3.32l.19,1.28.72,4.86c.21,1.46-.99,2.98-2.77,3.37Z"/>
    <path class="cls-43" d="M553.12,782.23c-2.76,2.48-6.44,3.86-9.52,4.93-3.07,1.94-4.5.21-4.26-5.21l-23.38-.34c-.03,3.02-.3,6-.8,8.95l-4.81-.68-.18-.03c-3.31,2.89-12.25-1.11-15.42-3.69-20.7-99.12-38.65-202.17-54.84-302.41-.3-3.22-.53-7.86.2-10.56l-1.89-1.34h0s-.85-8.88-.85-8.88c-3.63-1.23-7.12-2.17-10.46-2.79-9.03,106.65-22.93,213.44-39.63,318.59l-1.84.75-2.35,1.94-18.95.04-.67,5.34c-.09,1.1-.47,1.81-1.11,2.09-.48.21-1.11.19-1.89-.06h-.03c-.5-.15-1.05-.41-1.66-.74l-2.21,1.35c-7.36-.95-13.53-3.74-18.5-8.36-.7-66.99,1.58-138.92,7.27-208.31l19.37-233.27.06-.05s.03-.03.04-.03l1.74-1.4,2.6-2.55c38.13-12.67,73.5-35.68,100.04-65.92l3.42-1.48.19-.23c.52-.57,1.15-.84,1.92-.74.12.21.24.41.37.61,3.43,5.63,7.78,9.87,13.07,12.73l.7,1.97,1.88-.77c8.37,4.14,18.21-.53,25.89-4.38l1.78.97c.15,17.52.04,34.94-1.07,52.97-.84,13.53,1.69,26,3.19,39.6,12.95,116.98,24.28,233.53,29.78,351.16l2.82,60.23Z"/>
    <path class="cls-3" d="M438.85,473.27c-.54.64.15,1.62.05,2.61l-8.62,95.75-10.84,115.74-10.57,98.05c-6.34,2-12.61,2.96-18.92,3.44-1.7-1.03-2.16-3.25-1.36-6.64-1.72-.52-2.77-1.42-3.15-2.71l9.15-59.2,17.96-131.67,12.89-130.96c4.79,1.02,8.85,2.63,13.09,4.22,1.03,4.05,1.06,7.69,1.58,11.28-.33.02-1.05-.17-1.26.08Z"/>
    <path class="cls-28" d="M543.56,815.48c-19.58,4.2-14.93-4.32-28.87-5.39l-1.51-2.35-.39-14.55c-1.58-.88-2.46-2-2.62-3.34,1.22-.08,2.53.07,3.95-.26.04-3.38-.39-6.24.04-9.72l26.76.33.57,6.82c.44.41,1.63.11,2.11.13-.49.37-1.93,1.1-2.27,1.87.09,8.06-1.06,20.23,2.23,26.46Z"/>
    <path class="cls-40" d="M389.96,788.87c.15,7.2-2.95,17.75-.4,24.69-.31.53-.73.98-1.22,1.34-3.12,2.37-9.44,1.71-13.13,1.13-2.87-.46-12.42-4.72-15.07-6.38l-.45-1.88c1.64-5.81,1.73-12.33,1.73-18.46l-.96-.43h-.03s-1.66-.74-1.66-.74c.62-.03,2.53.22,2.84-.84.74-2.42.02-4.97,1.05-7.45,7.78-.21,15.34.57,22.78-.33,1.35-.16,3.13.79,4.76.81.33,3.27-.3,5.84-.25,8.53Z"/>
    <path class="cls-29" d="M518.4,278.27c-7.61,4.31-21.76,10.24-29.55,4.19l-.65-2.22c2.17-2.25,3.66-4.74,4.48-7.45l-2.5-24.24-15.1,19.21-.37.47-1.81-.09c-.09-.02-.2-.02-.3-.02-24.34,30.51-69.49,59.61-106.06,69.95-.57.5-1.14.98-1.74,1.4-.02,0-.03.02-.04.03-.21.15-.42.28-.63.42-.84.53-1.68,1.03-2.58,1.28-15.64,4.33-34.04,7.65-50.24,8.43-.93.04-1.88-.15-2.83-.39-.98-.23-1.93-.59-2.87-.98-.57-.39-1.1-.81-1.56-1.31-.09-.09-.16-.21-.25-.33-2.16-3.39-4.62-19.99-3.35-22.88.27-.62.65-1.18,1.05-1.74l2.07-1.68c20.22-5.42,39.64-12.81,58.28-22.17-.19-1.28-.26-2.24,1.42-2.82,1.28-.73,1.6-.36,2.23.63.57.93,16.01-10.02,18.41-11.78,21.36-15.72,37.99-36.92,51.73-59.48l20.64-37.08c.79-8.73,9.14-38.72,16.14-42.18.57-.28,1.2-.45,1.83-.61,12.26,6.78,21.53,17.54,27.9,30.41,3.06,6.16,5.53,11.61,7.02,18.44,6.14,28.14,8.97,56.21,9.21,84.58Z"/>
    <path class="cls-18" d="M474.27,144.84c-9.1,12.46-13.97,27.45-16.35,43.29l-17.05,30.9c-8.54,15.48-18.46,29.34-30.08,42.71-13.21,15.2-28.64,27.22-46.39,36.73-.5-1.3-.35-2.41-1.1-3.15l-1.86-1.76c-2.12-19.49-3.6-39.03-4.45-58.62l1.71-2.06h0c-.74-1.95-1.27-3.32-1.57-4.11-.2-.53-.3-.8-.3-.8-1.35-18.73.33-53.35,8.95-69.84,1.98-3.78,3.66-6.86,7.59-8.97,4.18-1.48,7.51-5.5,12.05-6.4.78-2.4,2.01-2.5,3.31-.39l.23,4.8c-6.82,23.44-9.68,49.72-6.88,74.03.77,6.69,24.46,6.2,29.96,5.69,14.15-1.3,14.79-4.39,17.34-17.54,2.2-14.92,4.68-29.92,9.09-44.41,2.6-8.55,6.29-20.01,10.97-27.46.82-1.3,2.18-2.15,3.5-2.89,7.58,2.41,14.45,6.43,21.34,10.24Z"/>
    <path class="cls-4" d="M362.33,173.3c-3.76,19.81-4.4,39.64-3.65,59.41,0,.06,0,.11,0,.17h0c-1.17-.12-2.23-.73-3.19-1.83-18.32,5.26-36.49,12.43-50.03,26.35-17.55,18.04-34.3,37.35-49.59,56.81l-2.44.69c-.31.7-.85,1.12-1.47,1.3-1.04.29-2.28-.08-2.96-.93h0c-.39-.48-.6-1.1-.51-1.82-2.23-2.18-.82-8.28-.03-11.47.08-2,.6-3.41,1.55-4.21.47-.4,1.04-.66,1.72-.77,0-2.03.03-4.1.71-6.03,6.47-18.56,12.64-36.53,16.94-55.36.44-.64,1.43-.54,2.2-.21,20.17-26.22,43.86-49.63,71.11-68.95,9.97-7.06,19.74-13.42,30.67-17.28-5.25,7.25-9.26,14.79-11.03,24.13Z"/>
    <path class="cls-17" d="M452.93,134.6c-11.91,21.31-17.64,45.61-21.1,70.25-.69,4.92-1.66,9.54-2.91,14.3-1.08,4.08-4.13,6.81-8.43,7.91-11.29,2.9-23.46,2.63-34.74-.51-2.9-.81-5.21-2.71-5.46-5.82-2.1-26.63-.11-53.41,8.43-78.34.92-2.86,4.78-2.52,6.17-.17,2,1.08,1.91,4.44,1.32,6.92-.14.6-.31,1.14-.48,1.59l2.12-.21c16.06,7.75,37.32-3.13,44.12-19.13l2.29-1.09c3.1.77,5.72,3.37,8.67,4.3Z"/>
    <path class="cls-2" d="M488.85,282.46c-5.95-1.36-10.03-6.74-13.64-11.94-.82-1.17-1.26-2.44-2.6-2.39l11.89-14.89c6.55-8.21,11.95-16.56,17.76-25.63.77,4.51-10.72,18.6-10.4,21.51l2.51,22.98c.44,3.99-3.92,7.22-5.51,10.36Z"/>
    <path class="cls-25" d="M464.69,30.29c-3.22,3.87-8.86,9.02-14.85,12.12-17.37,8.98-35.48,15.95-54.13,20.69-9.27,2.36-18.68,4.17-28.19,5.4-5.06.65-10.16,1.14-15.28,1.46l.6.57c-6.35,1.17-39.49,2.72-42.18-6.17-3.3-10.87,28.13-24.76,35.99-28.32.8.09.89.44.31,1.02.92.42,1.6,1.11,2.06,2.08.51,1.05.75,2.43.71,4.13,1.22,4.1,4.02,4.26,8.27,4.05,21.62-1.09,33.38-4.66,53.42-11.83,6.42-2.3,9.15-5.35,6.18-11.89-.14-.3-.28-.61-.45-.92l1.36-1.82c-2.53-.42-2.55-2.11-.57-3.63,1.45,1.31,3.54.74,5.69.57,8.16-.65,51.18-4.81,41.03,12.48Z"/>
    <path class="cls-41" d="M418.54,20.88l-.51,2.44c-.14.1-.27.2-.4.3-16.55,11.98-48.34,17.42-68.59,15.53-.21-.02-.43-.04-.64-.06l-1.42-2.02c-.19-.6-.28-.88-.31-1.02-.82-5.23-2.38-9.74-2.59-14.45-.27-2.01.27-3.21,1.61-3.6,16.39,2.41,34.69-1.92,50.34-7.36,5.95-2.07,11.6-4.52,16.06-8.57,1.03,1.08,2.06,1.42,2.54,2.94,1.34,4.21,2.55,8.22,3.34,12.24.32,1.66.46,2.6.57,3.63Z"/>
    <path class="cls-7" d="M408.96,6.74c-14.98,8.5-45.72,15.61-62.34,13.39-.92-.12-1.98-1.1-2.12-.48l-.43,1.94c-.81-3.14.56-5.79,3.16-7.43C361.2,5.35,389.25-.06,405.86,0c2.75,0,4.7.48,6.23,2.06.55,1.93-1.2,3.58-3.13,4.68Z"/>
    <path class="cls-39" d="M464.69,30.29c-.97,1.66-1.45,3.37-3.27,5.01-6.22,5.62-13.13,9.91-20.82,13.43-1.51.69-2.91,1.4-3.08,2.89-3.45-.04-21.46,8.27-25.74,9.26-18.58,4.32-37.17,8.1-56.21,9.74-.83.07-1.9.1-2.71-.09-2-.45-4.08.42-6.05-.74,3.66-.74,6.6.09,10.22-.45,32.14-4.74,63.41-13.2,92.24-28.04,5.63-2.89,10.19-6.52,14.34-10.74.27-1.02.83-1.11,1.09-.27Z"/>
    <path class="cls-19" d="M346.97,37.07c18.68,4.2,55.85-4.76,71.57-16.19.34,3,3.03,6.59,1.72,10.07-1.07,2.82-5.22,4.84-8.13,6.12-17.17,7.56-35.25,11.8-54.1,11.97-2.8.03-7.23-.25-8.65-2.33-2.03-2.97-1.52-6.73-2.41-9.65Z"/>
    <path class="cls-20" d="M415.18,92.99c-3.13,8.04-10.54,11.46-18.42,8.67-16.41-5.83-26.19,6.32-28.66,4.74-1.96-1.26-1.5-4.06-3.17-5.26.21-2.27-.54-4.59-1.63-6.93-2.88-6.14-4.77-12.23-6.03-18.5l4.62-1.61c17.05-.23,33.78-2.47,50.2-6.71.29-.07.57-.15.86-.22l1.58,2.32c2.26,7.56,3.57,15.98.63,23.5Z"/>
    <path class="cls-44" d="M444.25,130.3c-6.31,16.56-23.71,26.66-41.61,24.01-2.99-.45-5.41-1.69-6.92-3.59l.48-1.59.19-.62c19.39-5.03,32.44-22.95,32.77-42.17.06-3.43-.29-6.92-1.08-10.37-1.92-15.38-10.46-29.68-1.68-32.95,3.25-1.21,6.58.09,8.52,3.23,2.32,3.76,1.2,7.82.86,11.81.26,2.13-.15,4.34-1.22,6.63-2.58,3.19-3.01,6.88-1.31,11.1-1.22,2.91-.8,5.39.13,8.71,2.62,9.26,5.45,18.21,10.87,25.81Z"/>
    <path class="cls-36" d="M414.55,69.49c-.22-.16-.46-.28-.72-.39,0,0,0,0-.02,0-1.1-.43-2.41-.29-3.85.11-17.4,4.91-34.99,7.18-52.68,6.51-.35-1.75-.92-3.51-1.71-5.09,3.99-.69,7.98-1.4,11.96-2.12,9.42-1.7,18.81-3.51,28.19-5.4,4.34-.87,8.68-1.76,13.02-2.68l3.04.47c.68,2.95,1.91,5.71,2.77,8.61Z"/>
    <path class="cls-23" d="M436.76,78.05c-1.12,5.86-1.13,12.08-3.5,17.73-1.75,1.41-3.55-7.54-2.87-7.89,2.45-3.13,5.07-5.99,5.39-9.83h.98Z"/>
    <path class="cls-24" d="M305.61,348.26c-12.32.62-20.16-.45-30.89,8.41-.05.39-.16.72-.35,1.04h0c-.49.86-1.45,1.46-2.88,1.81l-5.8,3.77-.05.03-1.7-1.04c-1.44.69-1.28,1.69-1.09,3.2-.54-.69-.69-1.4-1.11-2.5-3.87,3.49-6.26.71-9.48-1.21-7.82-4.64-10.16-15.27-5.58-22.94l-.72-1.8c.21-.33.48-.69.8-1.07h0c2.1-2.58,6.09-6.25,8.19-7.52-.52-.87-1-1.8-.46-2.15.15-.1.39-.16.74-.15l1.04-1.46c14.73-.04,29.39-1.43,43.96-4.15l1.29,1.47c.39,8.91,1.56,17.72,4.1,26.26Z"/>
    <path class="cls-11" d="M436.76,78.05c-.34,1.47-.63,1.49-.98,0l-1.61-1.15c.94-5.03,1.03-12.12-5.59-12.63-4.76-.37-4.51,5.21-4.05,8.43l5.03,21.5-1.48,1.76c.99,3.46,1.32,6.94,1.08,10.37-1.16,16.98-16.06,32.66-32.11,37.12l-2.17-1.25c-1.95.4-4.18-.43-6.17.17-1.04.31-2.24.17-3.31.39-7.99-2.1-15.92-6.56-18.63-15.31l-2.64-8.51c-1.85-5.98-.4-12.17.8-17.8,1.52-1.1,2.83.14,3.9,3.67,10.63-7.01,20.81-7.9,32.98-3.91,14.51-.62,15.02-18.47,11.55-29.34l1.18-2.08c-.25-.1-.49-.23-.72-.39,0,0,0,0-.02,0-.63-.42-1.22-1.02-1.7-1.7-1.37-1.98-1.88-4.75-.33-6.51-.08-.39-.13-.79-.07-1.16.22-1.31,22.73-9.7,24.52-9.67l1.29,1.56c1.07,8.85.91,17.76-.75,26.43Z"/>
    <path class="cls-42" d="M395.72,150.73c-1.91-2.4-.74-5.58-.84-8.51,19.53-4.03,35.8-25.33,33.2-46.25,6.84,11.11-.38,30.8-9.27,41.2-6.99,8.18-15.04,9.62-23.09,13.56Z"/>
    <path class="cls-31" d="M392.87,109.19c-4.34,4.16-11.02,5.42-16.42,1.75,5.36-1.23,10.29-2.21,16.42-1.75Z"/>
    <path class="cls-5" d="M393.67,834.38c.29,1.6.56,3.23.3,4.85-2.81,2.29-4.12,2.55-10.25,2.69-3.37.78-6.96.85-10.28-.07-.34-.85-.83-2.07-1.54-2.28-.93-.27-1.96.07-2.91.34-10.73,3.15-21.19,4.3-32.38,4.05-5.27-.12-31.95-.69-31.7-7.17l1.62-.92c20.02,6.64,43.78,4.65,64.19-.24l21.5-2.79,1.45,1.54Z"/>
    <path class="cls-33" d="M383.72,841.93c1.67.85-9.49,1.89-10.28-.07,3.42.17,6.86.15,10.28.07Z"/>
    <path class="cls-47" d="M393.89,831.6v.11s-.21,2.67-.21,2.67l-21.66,2.79c-6.27.8-12.01,3.02-18.38,3.66-9.78,1-41.81,1.88-48.73-4.05.15-3.73,3.07-6.49,7-7.49l22.61-5.75c9.96-2.53,21.61-16.59,25.17-15.77,8.97,2.06,12.06,10.07,29.86,5.78,1.62,4.38,4.78,13.39,4.33,18.04Z"/>
    <path class="cls-12" d="M254.9,328.12c0,.12.02.22.05.33-1.56-1.18-2.15-3.16-3.01-4.86l1.97-2.64,1.31,5.2c.15.58-.33,1.35-.33,1.97h0Z"/>
    <path class="cls-32" d="M271.09,597.27c-4.43,23.75-15.5,52.75-41.78,58.19-25.7,5.33-45.53-7.1-64.38-22.21-7.67-5.46-16.57-8.53-26.1-8.65l-.56-.43-1.71-1.3-1.13-5.2c-.81-29.93-1.94-59.86-3.42-89.8,40.38-28.48,66.59-69.73,86.88-113.94.04-.1-.69-1.19-.89-.84-16.73,34.68-36.83,69.59-65.78,95.75-3.21,2.9-16.58,14.93-19.54,13.56-.98-.46-1.2-2.55-1.21-5.11-2.11-32.72-2.38-65.53-1.73-98.3,15.35-14.38,29.54-29.72,42.57-46.05-11.4,14.08-23.98,27.27-37.7,39.16-3.34,2.88-3.86.84-4.56-3.26.92-32.4,2.25-64.3,3.86-96.05,10.57-10.79,21.18-22.14,31.82-34.06l-7.58,7.44-2.04-.4-1.62-1.12,1.53-17.19c-.07-22.62-14.2-28.67-16.94-3l-1.77,1.11c-1.08.68-1.62,1.03-1.62,1.03-4.23,60.84-7.07,123.02-8.49,186.56.07,2.54-.08,4.61-1.01,5.04-3.4,1.63-14.66-16.92-16.97-20.8-13.53-22.72-22.77-47.84-30.84-72.91,10.45,35.33,24.42,72.11,48.92,101.31,1.47,35.83,2.85,71.4,4.13,106.7-.17,1.03-.42,1.88-.96,2.15-2.5,1.21-15.46-12.13-18.12-14.92-20.04-21.1-37.42-42.14-55.52-64.78-.73-.91-1.47-.1-1.42-.03,22.33,31.22,47.81,60.22,76.24,86.06-.03,27.58-.05,41.37-.05,41.37-.43.6-1.03.9-1.78.91-.32,0-.68-.05-1.07-.15-4.77,1.31-9.51,2.32-14.63,4.14-17.84,6.34-36.54,8.97-55.22,5.75-32.98-5.69-48.11-34.02-53.77-64.37-10.35-55.52-3.19-126.7,5.21-182.82,6.8-45.52,19.51-94.37,41.38-134.91,14.27-26.45,36-55.62,65.61-65.33,25.38-8.33,52.35-2.68,73.37,13.59,26.19,20.25,39.38,49.6,51.04,78.99,3.55.05,1.86,6.99-.96,7.77-.43,1.65-.99,3.24-1.7,4.77h0c-1.18,2.55-2.76,4.93-4.74,7.16h-2.02s-.07-.01-.07-.01c-2.46-1.95-3.68-2.93-3.68-2.93-12.65-25.15-28.53-46.75-46.83-68.21-1.97-2.32-25.78-28.3-28.29-27.04-1.96.99,14.03,28.17,15.58,30.58,15.82,24.62,32.78,49.58,52.47,72.1l1.4,3.18c.41-.2.83-.19,1.24-.04.01,0,.02.01.03.01,1.59.55,3.02,3.18,3.02,5.12,0,.82-.26,1.52-.87,1.89l.5,2.24c-.04.09-.09.18-.14.27-6.12,11.99-14.25,32-5.2,43.82,2.09.75,3.38,1.85,3.86,3.31l1.57.87-5,27.51c-.25,7.5,6.49,8.73,8.85,1.94l10.98-55.13c1.61-2.7,4.1-2.74,5.01-1.38h0c.47.68.53,1.69-.07,2.88.88,1.5.77,3.4-.35,5.7-2.16,8.57,6.76,20.92,15.66,17.39.07-.02.14-.06.21-.08l.65,3.64c.54.69,1.05,1.4,1.44,2.16.4.76.77,1.49.88,2.26,10.22,73.21,19.53,154.37,5.92,227.37Z"/>
    <path class="cls-34" d="M133.47,528.44c2.24,32.19,3.21,63.24,3.09,94.43l1.71.59v.71c-.11,27.47-.22,54.95-.32,82.45l-1.72,1.03c-.38,43.08-.41,86.19-.08,129.34,3.6,1.25.84,5.04-2.68,5.34-4,.35-7.15-3.75-3.49-5.52-.18-47.1-.01-94.18.51-141.23l-.02-70.78c0-.8-.23-1.31-.57-1.51-.03-.01-.05-.02-.08-.03-.31-.15-.73-.15-1.07-.15-.76-.66.55-1.01,1.51-1.42l.03-39.89c-27.79-24.47-54.89-56.16-76.8-86.24-.88-1.2,1.58-2.53,2.38-2.74,1.26-.32,2.22.88,3.29,2.3,15.89,21.05,32.71,40.93,51.01,59.91,6.49,6.74,12.53,12.76,19.84,18.66.2-9.16-.39-17.25-.94-26.13-1.71-27.19-3.07-53.63-3.33-81.26-21.31-24.81-33.63-54.67-44.16-85.4-1.6-6.43-14.89-45.38-11.84-47.31.46-.29,1.47,0,1.78,1.15,10.33,38.5,27.41,91.56,54,122.91-.07-32.93.92-63.8,2.82-95.78l5.63-94.7c.07-1.17.44-2.19,1.24-2.42.7-.19,1.52.49,2.1.82l1.68.85c-.97,11.29-1,22.59-.08,33.89,5.17-4.04,9.99-8.77,14.47-14.21l2.73-.33,9.44-9.27c5.53-5.42,8.57-13.42,15.96-17.23-8.87,15-19.87,27.5-31.47,39.28l-14.62,14.85-3.02,73.39c-.37,8.92-.82,17.1-.57,25.7,19.55-17.46,36.05-34.97,50.53-55.77.69-.99,1.57-.86,2.08-.69.57.19,1.49,1.76.87,2.67-15.39,22.58-34.16,41.57-54.05,60.87-.25,34.24-.23,67.65,2.14,102.02,37.86-25.95,63.56-68.52,82.52-108.16.74-1.57,1.43-3,2.73-2.2,1.05.63,1.77,1.42,1.86,3-20.19,44.4-46.27,86.22-87.04,114.21Z"/>
    <path class="cls-6" d="M232.25,297.84c1.67-.02,1.61.67-.09,1.06-.61,3.43-5.84,6.97-9.27,6.62-18.74-20.01-34.77-42.26-49.85-65.6-3.22-4.99-24.42-38.87-21.22-41.8,2.61-2.39,13.68,8.88,16.4,11.63,13.92,14.02,26.32,28.79,38,44.8,10.19,13.97,17.53,28.84,26.03,43.3Z"/>
    <path class="cls-32" d="M116.6,286.86c-.57,1.01-1.65,1.35-2.07,1.51-.55.22-1.67-.56-2.08-1.54-6.39-15.3-12.79-40.28-6.38-56.11.66-1.62,1.98-2.71,3.26-3.19,5.38-2.01,12.12,8.57,13.72,15.3,3.58,14.96,1.24,30.45-6.46,44.03Z"/>
    <path class="cls-21" d="M240.71,293.71c-2.37,1.91-1.07,8.18-3.33,12.12l-5.21-6.94.09-1.06,8.53-11.92-.07,7.79Z"/>
    <path class="cls-38" d="M425.8,91.3c-.18-.42-.69-.67-1.13-.54,1.04,1.49.84,3.51.38,5.27s-1.13,3.54-.89,5.35c.13,1,.53,2.05.11,2.97-.63,1.36-2.52,1.4-4.01,1.23,1.34,1.97,1.69,4.58.91,6.83-.69,2-2.82,3.83-4.79,3.06.22,1.82.08,3.68-.42,5.45-.37,1.29-1.1,2.69-2.42,2.97-1.03.22-2.1-.36-2.73-1.2s-.87-1.91-1-2.95c-.12-.92-.47-2.14-1.4-2.07.42,4.16.67,8.86-2.1,11.99-1.44,1.63-3.5,2.56-5.55,3.28-5.75,2.02-11.95,2.74-18.01,2.08-.89-.1-1.82-.23-2.57-.73-.69-.46-1.17-1.18-1.54-1.93-.99-2.01-1.33-4.35-.95-6.56-1.9,3.05-2.08,7.1-.45,10.3-2.41-.18-4.59-1.57-6.22-3.36s-2.78-3.94-3.91-6.07c.54,4.31,2.93,8.35,6.45,10.89,2.76,1.99,6.08,3.05,9.38,3.86,2.91.72,5.9,1.29,8.9,1.14,2.58-.13,5.1-.8,7.53-1.69,10.51-3.82,19.42-11.83,24.33-21.88,2.88-5.9,4.36-12.46,4.4-19.02s-2.05-12.11-3.56-18.36c.3,2.82.15,7.08,1.25,9.68Z"/>
    <path class="cls-38" d="M398.78,124.04c.87,1.54,1.21,3.35,2.21,4.81-.35-.51-.03-2.81-.16-3.55-.22-1.25-.59-2.63-1.24-3.73-.38-.65-1.07-1.77-1.8-.96-.81.89.58,2.69,1,3.43Z"/>
    <path class="cls-34" d="M137.59,697.08c1.3,9.58,1.2,19.3,1.1,28.97-.34,32.56-.69,65.12-1.03,97.67-.05,5.06-.13,10.23-1.93,14.96-1.47-6.31-2.16-12.78-2.23-19.26-.08-7.32-.17-14.63-.25-21.95-.04-3.8-.09-7.6-.13-11.4-.05-4.39-.1-8.78-.13-13.17-.06-9.63-.02-19.26.13-28.9.16-9.9.42-19.81.69-29.71.1-3.65.2-7.29.3-10.94.07-2.48,1.3-5.11,3.49-6.29Z"/>
  </g>
</svg>