<?xml version="1.0" encoding="UTF-8"?>
<svg id="Layer_2" data-name="Layer 2" xmlns="http://www.w3.org/2000/svg" viewBox="0 0 256 238.12">
  <defs>
    <style>
      .cls-1 {
        fill: #010201;
      }

      .cls-2 {
        fill: #50cd34;
      }

      .cls-3 {
        fill: #fefefe;
      }
    </style>
  </defs>
  <g id="Layer_1-2" data-name="Layer 1">
    <g id="WBWaq4.tif">
      <g>
        <g>
          <g>
            <path class="cls-2" d="M241.22,117.73c.02-13.84-2.65-26.91-7.26-39.77-6.05-16.9-16.17-32.16-29.08-44.53C184.7,14.1,158.32,3.32,130.39,2.97c-2.06-.02-3.71-.15-5.81-.06-31.75,1.27-59.5,13.89-80.54,37.81-10.18,11.56-17.75,24.93-22.79,39.5-4.22,12.17-6.19,24.75-6.87,37.49l-10.96-2.18.05,76.26,27.77-9.52c2.41,3.73,4.7,7.14,7.43,10.55,12.82,15.02,32.42,27.36,50.96,33.9,8.47,2.99,16.84,4.82,26.01,5.82,31.11,3.42,62.89-7.29,87.05-26.42,8.57-6.79,15.65-14.8,21.58-24.03l17.2,6.01,10.86,3.67v-76.22s-11.1,2.17-11.1,2.17ZM34.53,181.11l.67-.34.84,1.69-.67.34-.84-1.69ZM36.38,183.67c-.21,0-.37-.17-.37-.37,0-.21.16-.38.37-.38s.38.17.38.38c0,.2-.17.37-.38.37ZM36.89,184.31c-.09,0-.17-.08-.17-.17s.08-.16.17-.16.17.07.17.16-.08.17-.17.17ZM249.03,128.38l-.23,11.01-.35,18.61-.37,18.02-.24,9.09-47.55-13.25c5.46,3.37,11.66,5.65,18.4,8.08-3.99,5.98-8.43,11.66-13.89,16.5-13.47,11.97-29.17,20.52-46.42,25.65-7.31,2.17-14.5,3.89-22.08,4.22l-5.26.23c-17.56.75-35.45-3.08-51.33-10.71-11.87-5.7-19.88-11.14-29.7-19.87-5.19-4.61-9.42-10.05-13.04-15.89,6.35-2.76,12.39-4.68,18.38-8.24-15.94,3.82-31.51,8.6-47.29,13.36-.24-2.89-.28-5.65-.31-8.65l-.31-28.93-.2-18.32c-.05-3.48-.23-6.75-.12-10.37,4.97,1.14,10.22,2.09,15.26,2.24l14.68.46,31.61.09c2,0,3.22-.45,4.96-1.19,8.72-3.75,17.64-6.44,26.95-8.4l24-5.05c.88-.18,1.42-.58,2.43-.55,2.44.05,4.67-.69,7.13-1.05,11.97-1.73,23.82-3.07,35.93-3.67l4.76-.23c7.57-.37,14.97-.2,22.53,0l3.05.08,5.72.62c5.95.64,11.54,1.55,17.84,2.35l-10.98-9.66c-9.96-8.77-21.4-16.5-33.83-21.45.51-4.46-1.49-6.77.7-9.42,1.25-1.5,3.02-2.82,5.15-1.68.95.52,3.45.83,3.71-.62.2-1.07-.02-1.95.58-3.08.42-.76.2-2.11-.21-2.62-.57-.73-1.43-1.17-2.51-1.05-.45-.02-.43-.84.05-.6.84.4,1.22-.1,1.44-.57.85-1.85-1.12-1.68-.47-4.48-.96-.54-2.25-.47-2.91-1.26-.77-.9-.7-2.52-1.7-3.25-.43-.31-1.05-.55-1.29-1.14-.45-1.1-1.27-.86-1.99-1.07-1.1-.34-1.76-.51-2.96-.24-1.37.32-3.18-.09-4.18,1.25-.35.46.5.94.92,1.36-1.16.54-2.44.43-3.82.89.03,1.53,1.17,2.29,2.72,2.62-1.21.83-2.24-.05-3.21-.5-.75.4-1.64.43-2.25,1.16.54,1.4.6,2.84-.74,3.55.28.97.21,1.95.03,2.9-1.02-.25-2.02-.13-2.45.69-.15.29-.08.9.03,1.09.14.25.73.42,1.37.27.4.18.02.37-.43.42-.61.61-.24,1.41.13,1.98,1.28,1.91,2.89-.13,4,1.88.31.54.91.69,1.39.73.66.06,1.04-.44,1.35-.97.25.44.21.79.44,1.02.22.21.65-.38,1.01-.65,1.36,1.07,2.61,2.48,3.75,3.74-.6,2.29-.18,4.33-.28,6.72-8.42-3.42-16.89-5.64-25.87-7.41,3.72-4.89,7.52-7.05,11.68-10.77-2.09.84-3.81,2.04-5.48,3.52l-4.25,3.79c3.17-6,7.24-11.06,11.96-16.02-2.87,1.69-5.36,3.77-7.87,5.97l-.2-2.08c-1.35,2.21.68,1.99-2.67,5.03l-.06-1.34-2.36,3.66c.27-1.88,1.29-3.44,2.08-5.3,1.86-4.47,4.02-8.58,6.52-12.73-1.66,1.31-2.66,3.07-3.97,4.75-1.54,1.95-2.98,3.8-3.95,6.12-.75-1.56-.12-2.99-1.41-3.81.27,5.58,2.14,2.59-1.42,8.69-1.25-10.02-.1-7.2,3.12-14.95.23-.34-.15-.47-.38-.22l-3.95,5.64c-.79-2.35-1.29-4.07-2.2-5.98-.34-.69-.1-1.74-1.06-2,.68,3.03,1.5,5.98,1.26,9.05-.1,1.29-1.46,2.29-1.71,3.44-.44-2.67-1.1-4.92-2.47-7.05-.43,1.34,2.45,10.01.61,9.37l-2.89-5.49,2.37-10.04c-1.85,2.65-2.77,5.45-3.78,8.4-1.79-2.24-3.37-4.75-5.79-6.67,5.06,10.37,5.26,5.11,3.86,16.58-1.5-2.89-1.74-5.75-1.28-8.7-1.5,1.22-.66,2.96-1.01,4.67-2.4-4.24-4.79-8.42-8.35-11.89,2.26,4.09,4.08,8.05,5.89,12.28,1.03,2.39,2.13,4.66,2.8,7.26-3.51-4.92-6.98-10.16-12.57-12.39,4.85,5.23,9.06,9.94,11.78,16.12-.1.75-.57.87-.47.01-2.37-2.7-4.83-5.31-8.54-6.97,1.91,1.93,6.31,4.22,8.2,8.3-9.06-.03-16.86.27-25.58,1.7-.2-3.49-.55-6.67-.29-10.1.1-1.37,2.33-1.85,4.61-3.73.9-.75,1.49-.31,2.37,0,1.03.38,2.23.05,3.4.38l3.69-4.73c.35-.43.38-.98.37-1.47,0-.38-.74-.64-.89-1.03.1-.39.68-.83.57-1.39-.14-.67-.79-.72-1.43-1.09l-2.32-1.29c.91-.42,1.5-.03,2.18-.49-.22-1.62-3.04-1.4-1.84-2.23.17-.13.75.15.82-.07.09-.24-.31-.45-.3-.62.02-1.02.59-1.94.39-3.02-1.27-.47-2.58-.31-3.87-.57l-.44-2.81c-.13-.75-.61-1.31-.87-2.28-.21-.79-2.3-.61-2.66-1.21-.17-.29.03-.64.15-1.13.07-.3-.47-.31-.7-.16-.2.13-.27.37-.53.67-.37-1.24-1.17-1.41-2.2-1.71-.29-.08-.55-.44-.81-.54-.34-.14-.67.68-.92.65-1.03-.12-1.71.17-2.55.34-.92.17-1.8-.44-2.66.61-.2.24-.79.29-.96.54-.29.43.09,1.13.08,1.51-.72,1.17-2.25,1.49-3.42,2.09-.68.43-.06,1.77.24,2.4-6.62,2.13-2.58,4.47-5.3,5.25,1.37.61,2.11.13,2.99.9-1.7-.44-5.16,1.71-5.31,2.31-.15.55.05.98.57,1.31-1.81.34-.85.83-2.17,2.62,3.07,1.07,2.38-3.03,4.25-1.35-1.72.67-3.77,3.73-2.18,4.45l2.89,1.31c.77.36,1.58,2.1,2.7,1.21.57-.45.75-1.4,1.92-1.13,2.98.69,5.21,2.37,7.28,4.77.1-1.7-.88-2.9-2.28-3.52,1.02-.23,1.46-.83,2.1-1.14,1.51-.75-.58,14.28-.12,16.08-9.17,1.72-17.86,4.16-26.46,7.43l-.12-4.62c-.05-2.04.84-3,2.31-4.02,1.21-.83,2.74-2.26,4.55-1.76.73.2,1.99,1.65,2.88.85,1.13-1.04,2.15-2.47,3.87-2.8.57-2.14-.31-1.85.4-4.9-.87-.98-1.86-.64-3.19-.54.07-.44.72-.44.61-.81-.14-.49-1.02-.84-1.47-.91-.83-.12.91-.5,1.5-1.51.4-.68-.81-.95-.85-1.32-.44-3.44-1.66-.67-1.57-4.56-.3.05-.55.72-.85.55-2.88-1.39-.81-1.99-3.15-2.32.34-.46.74-.12,1.16-.52l-2.06-1.96c.22-.24.44-.4.4-.53-.06-.21-.53-.29-.6-.47-.36-.81-.31-1.46-.94-1.94-.54-.43-1.41-.18-2.02-.46-.9-.42-1.63-1.29-2.95-.68.28.36.57.68.44,1.01-8.1-.31-4.48,3.45-8.58,4.73-.61.2.13,1.49-.05,1.89-2.15,1.63-4.66,1.44-3.86,4.86.12.46-.82,1.24-.1,1.94-.24.23-2.7.49-2.44,1.12.08.21.68.29.75.61-.5.6-1.54-.08-1.93.58.44,2.93-1.22-.36-.54,4.11.89.64.67,1.48.39,2.23.87,1.34,2.98.9,4.32,1.29.17.05,2.96,2.32,4.56.65-.23-.34,2.48.77,3.2,1.2.07-.05.15-.13.25-.23l2.6,2.24c.09,2.8.03,5.5-.17,8.34-1.7,1.16-3.62,1.66-5.52,2.52-5.34,2.41-10.29,5.29-15.26,8.25l14.96-4.18,9.95-2.31c5.57-1.29,20.98-3.36,26.77-3.74l4.74-.31,7.43-.31c6.12-.27,12.19-.46,18.37-.1l6.37.37,3.35.09c3.32.08,3.73.69,7.11.89,3.7.21,7.13,1.11,10.84,1.62-.31.53-.88.37-1.41.29-6.53-1.01-12.87-2.16-19.5-2.28-5.11-.09-10.01-.12-15.01.1l-7.72.35c-8.3.37-16.2,1.47-24.49,2.85-16.5,2.75-32.47,6.84-48.21,12.22-1.49.52-1.94,1.39-2.69,2.55-1.5,2.32-3.65,3.95-5.04,6.56,15.94-5.22,36.92-12.75,53.05-15.47l13.3-2.23c3.95-.67,7.82-1.28,11.85-1.55l4.74-.32,4.37-.31,8.39-.21c1.87-.05,3.56.01,5.43.03l8.72.13c.8.01,1.61.2,2.41.5l-13.22.13c-16.87.16-45.3,6.23-61.98,11.09-8.9,2.6-17.51,5.11-26.08,8.65l-12.05,4.99c-1.47.61-1.71,1.74-1.61,3.21.12,1.92-.47,3.77.07,5.88,10.55-5.34,20.99-10.04,32.11-13.75l19.74-6.57c14.88-4.97,38.84-8.68,54.54-9.47,7.21-.37,14.1-.92,21.17.12l7.54,1.11-15.49.27c-18.72.31-55.68,8.34-74.65,13.9-9.58,2.8-18.79,5.88-27.84,9.7.54.92.87.06,1.5-.13,13.27-3.99,26.56-7.17,40.31-9.07l17.18-2.37,25.89-2.73,3.43-.23,6.86-.27,13.96-.31c.89-.01,1.54.03,2.45.03,13.02,0,25.89.91,38.67,3.43,2.44.49,4.64.79,6.83,1.71-6.23-.89-11.97-1.88-18.14-2.17-5.81-.28-11.46-.37-17.34-.09l-6.03.3c-5.3.25-10.28.75-15.59,1.17-15.22,1.2-29.99,3.45-44.99,6.56-18.49,3.84-36.58,8.54-54.22,15.09-1.12.43-1.34.51-2.54.49l-18.28-.21c-4.76-.06-9.34-.45-14.06-1.55,1.81-30.17,11.38-56.22,32.11-78.22,18.53-19.66,43.33-30.69,70.21-32.82,4.34-.35,8.58-.24,12.91-.02,6.22.3,11.98,1.35,18.03,2.82,15.23,3.67,29.01,10.64,41.27,20.38,12.22,9.72,22.18,21.74,29.21,35.73,8.09,16.09,12.52,34,13.07,52.05l-7.21,1.63c6.63.35,13.14-.81,20.11-2.07.39,3.18-.03,6.32-.1,9.54ZM179.12,60.92c.25-.28,1.31.06,1.33.51.05.9-.89,1.49-1.46,1.98-.51-.92-.49-1.79.13-2.48ZM176.54,48.01c.5-.07.96-.16,1.85,0-.44.55-.51,1.03-1.18,1.33l-.67-1.33ZM176.76,64.01c-.59-.65-3.97-2.4-2.76-2.98.3-.15,1.03.55,1.66.57.39,0,.47-.55,1.17-.62.23,1.27-.01,2.11-.07,3.04ZM169.85,58.88c-.9.45-.99-.09-1.4-.67-.31-.43,1.01-3.03,1.16-2.06-.64,1.22-.66,2.11.24,2.73ZM168.03,50.84l2.72-1.25c.31.87-.39,1.12-.74,1.41-.53.44-1.37.5-1.98-.16ZM146.76,49.51l-.74,9.87c-.58-5.68-2.6-2.69.74-9.87ZM143.45,64.56c-.62-1.13-.02-2.03.29-2.96.7,1.07.47,2.1-.29,2.96ZM139.32,55.18c-.01,2.48.36,4.66-.44,6.9l-.39-6.44c-.1-1.65.22-3.15.57-4.82,2.72,5.52,2.31,4.46.92,9.6-.57-1.89,1.07-3.62-.66-5.25ZM106.85,50.14c1.4.06,2.56.28,4.09-.07-.1,1.16-2.38.73-4.01,3.6-.27-1.32-.18-2.26-.08-3.54ZM105.4,35.71c1.13-.81,2.43-.7,3.34.89-1.09.03-2.03-.53-3.34-.89ZM74.01,64.05c-3.85-2.09-.8-2.26-3.95-2.37.1-.35.37-.55.54-.75,3.88,2.4,2.24-.3,4.88.62-.62.2-1.1.17-1.07.96.01.7.08,1.11-.39,1.54ZM75.03,45.54c-.31-.18-.13-2.32.9-2.52l1.04,1.34-.22.97c0-.2-1.72.12-1.72.21ZM78.35,52.73c-.32,1.34.94,1.37,1.04,2.58l-2.69-.65c.7-.75.91-1.37,1.65-1.93ZM77.18,61.71c.14-.68.96.3,1.26.34.24.03.73-.28.9-.28,1.66-.01-1.51,3.14-2.41,3.77.49-1.35.09-2.59.25-3.82Z"/>
            <g>
              <path class="cls-1" d="M139.33,55.18c-.02,2.47.35,4.65-.44,6.89l-.39-6.43c-.1-1.65.22-3.16.56-4.82,2.72,5.52,2.32,4.45.93,9.59-.57-1.89,1.08-3.61-.65-5.23Z"/>
              <path class="cls-1" d="M146.02,59.38c-.57-5.68-2.6-2.69.74-9.87l-.74,9.87Z"/>
              <g>
                <path class="cls-1" d="M79.34,61.77c1.66,0-1.52,3.15-2.42,3.77.49-1.36.09-2.59.26-3.83.14-.68.95.3,1.26.34.24.03.73-.28.9-.28Z"/>
                <path class="cls-1" d="M74.4,62.52c.02.7.08,1.1-.39,1.53-3.84-2.08-.8-2.26-3.95-2.37.11-.35.37-.56.54-.75,3.89,2.41,2.24-.3,4.87.62-.61.2-1.09.18-1.07.97Z"/>
                <path class="cls-1" d="M76.75,45.34c.05-.23-1.95.16-1.69.21-.35-.07-.18-2.33.87-2.52l1.04,1.33-.22.98Z"/>
                <path class="cls-1" d="M79.4,55.3l-2.69-.64c.7-.75.91-1.37,1.65-1.93-.32,1.34.94,1.38,1.04,2.57Z"/>
              </g>
              <g>
                <path class="cls-1" d="M110.93,50.07c-.1,1.15-2.38.72-4.01,3.6-.26-1.32-.18-2.27-.08-3.54,1.39.06,2.56.28,4.09-.06Z"/>
                <path class="cls-1" d="M108.74,36.6c-1.09.03-2.03-.53-3.34-.88,1.13-.82,2.43-.71,3.34.88Z"/>
              </g>
              <path class="cls-1" d="M143.44,64.56c-.62-1.14-.02-2.04.3-2.97.7,1.07.47,2.1-.3,2.97Z"/>
              <g>
                <path class="cls-1" d="M176.83,60.98c.22,1.27-.02,2.12-.07,3.04-.59-.65-3.98-2.41-2.77-2.99.3-.14,1.03.56,1.66.57.39,0,.48-.55,1.18-.62Z"/>
                <path class="cls-1" d="M180.45,61.43c.05.9-.89,1.49-1.46,1.97-.51-.93-.48-1.79.13-2.48.25-.28,1.3.06,1.33.51Z"/>
                <path class="cls-1" d="M168.03,50.85l2.72-1.25c.31.86-.4,1.12-.74,1.4-.54.44-1.37.5-1.98-.15Z"/>
                <path class="cls-1" d="M169.85,58.88c-.9.45-.99-.09-1.4-.66-.31-.44,1.02-3.03,1.16-2.06-.64,1.21-.66,2.11.24,2.72Z"/>
                <path class="cls-1" d="M178.39,48.01c-.45.55-.51,1.03-1.18,1.33l-.67-1.33c.5-.06.96-.15,1.85,0Z"/>
              </g>
            </g>
            <path class="cls-2" d="M193.52,121.83h-51.91s-62.92-.38-62.92-.38c4.25-1.05,8.45-1.8,12.93-2.88,12.99-3.11,25.84-5.22,39.14-6.17l5.99-.43,4.72-.32,7.1-.37c17.34-.91,47.31.36,63.83,5.12l14.27,4.11c-1.21.92-2.62.86-4.01.79-2.86-.15-5.57.26-8.4.29l-20.75.23Z"/>
          </g>
          <path class="cls-3" d="M230.75,112.56c.05,1.03.03,1.8-.34,2.69-.45-9.58-2.41-19.01-5.28-28.36-5.66-18.42-16.38-34.36-30.79-47.07-9.12-8.04-19.37-14.42-30.78-18.75-23.35-8.87-48.91-8.51-72.22.65-22.18,8.71-40.82,25.45-52.26,46.33-4.26,7.78-7.35,15.61-9.67,24.09-2.03,7.41-2.87,14.7-3.97,22.21-.4-4.85.39-9.22,1.2-13.98,3.44-20.31,12.47-39.44,26.48-54.57,8.96-9.68,19.27-17.74,31.2-23.33,11.99-5.62,24.57-8.85,37.75-9.74,37.99-2.57,73.27,16.94,93.09,49.08,9.45,15.32,14.64,32.96,15.58,50.75Z"/>
          <path class="cls-2" d="M230.42,115.26c.36-.9.39-1.66.34-2.69.46-1.34.51,6.16.05,5.62-.49-.77-.67-2.22-.39-2.92Z"/>
        </g>
        <g>
          <path class="cls-1" d="M245.19,113.88c-1.44-24.68-9.92-47.9-24.56-67.62-12.95-17.47-32.3-32.1-52.83-39.43-31.22-11.15-67.7-8.7-96.67,7.81-17.91,10.19-32.04,24.2-42.68,41.82-10.54,17.45-16.35,37.03-17.8,57.54l-10.64-2.06.02,84.41,28.98-9.89c4.1,6.82,9.22,12.55,14.89,18,15.61,14.4,34.39,24.4,54.92,29.92,9.2,2.21,18.3,3.78,27.89,3.74,20.58-.07,40.68-5.44,58.91-15.2,16.63-8.92,31.12-20.47,40.93-36.45l19.29,6.68c3.4,1.18,6.6,2.39,10.14,3.27v-84.56s-10.8,2.02-10.8,2.02ZM252.33,191.77l-10.86-3.67-17.2-6.01c-5.93,9.23-13.01,17.24-21.58,24.03-24.17,19.13-55.94,29.84-87.05,26.42-9.16-1.01-17.54-2.83-26.01-5.82-18.54-6.54-38.14-18.88-50.96-33.9-2.73-3.41-5.01-6.82-7.43-10.55l-27.77,9.52-.05-76.26,10.96,2.18c.68-12.74,2.66-25.32,6.87-37.49,5.05-14.57,12.62-27.94,22.79-39.5C65.08,16.79,92.83,4.18,124.58,2.91c2.1-.09,3.75.03,5.81.06,27.92.36,54.31,11.14,74.5,30.47,12.91,12.36,23.03,27.62,29.08,44.53,4.61,12.86,7.28,25.93,7.26,39.77l11.11-2.17v76.22Z"/>
          <rect class="cls-1" x="34.91" y="180.84" width=".75" height="1.88" transform="translate(-77.58 34.98) rotate(-26.57)"/>
          <circle class="cls-1" cx="36.38" cy="183.3" r=".38"/>
          <circle class="cls-1" cx="36.89" cy="184.14" r=".17"/>
          <g>
            <path class="cls-1" d="M249.14,118.83c-6.98,1.26-13.48,2.41-20.11,2.07l7.21-1.63c-.54-18.05-4.98-35.95-13.07-52.05-7.02-13.99-16.98-26.02-29.21-35.73-12.26-9.74-26.04-16.71-41.27-20.38-6.05-1.47-11.82-2.52-18.03-2.82-4.32-.22-8.56-.32-12.91.02-26.88,2.14-51.68,13.16-70.21,32.82-20.73,22-30.29,48.05-32.11,78.22,4.73,1.1,9.3,1.49,14.06,1.55l18.28.21c1.2.02,1.42-.06,2.54-.49,17.64-6.55,35.73-11.25,54.22-15.09,15-3.11,29.77-5.36,44.99-6.56,5.3-.42,10.28-.91,15.59-1.17l6.03-.3c5.88-.28,11.53-.18,17.34.09,6.17.29,11.91,1.28,18.14,2.17-2.18-.92-4.39-1.22-6.83-1.71-12.78-2.52-25.65-3.43-38.67-3.43-.91,0-1.56-.05-2.45-.03l-13.96.31-6.86.27-3.43.23-25.89,2.73-17.18,2.37c-13.75,1.89-27.03,5.08-40.31,9.07-.64.18-.96,1.05-1.5.13,9.06-3.82,18.27-6.91,27.84-9.7,18.97-5.56,55.93-13.59,74.65-13.9l15.49-.27-7.54-1.11c-7.07-1.04-13.96-.49-21.17-.12-15.7.8-39.66,4.51-54.54,9.47l-19.74,6.57c-11.11,3.71-21.56,8.41-32.11,13.75-.54-2.11.05-3.96-.07-5.88-.1-1.47.14-2.6,1.61-3.21l12.05-4.99c8.56-3.55,17.18-6.05,26.08-8.65,16.68-4.86,45.12-10.93,61.98-11.09l13.22-.13c-.81-.3-1.62-.49-2.41-.5l-8.72-.13c-1.87-.02-3.56-.08-5.43-.03l-8.39.21-4.37.31-4.74.32c-4.03.27-7.9.88-11.85,1.55l-13.3,2.23c-16.13,2.72-37.11,10.25-53.05,15.47,1.39-2.61,3.54-4.24,5.04-6.56.75-1.17,1.2-2.03,2.69-2.55,15.75-5.38,31.71-9.47,48.21-12.22,8.3-1.39,16.2-2.48,24.49-2.85l7.72-.35c5-.22,9.9-.2,15.01-.1,6.63.12,12.97,1.27,19.5,2.28.53.08,1.1.24,1.41-.29-3.71-.51-7.14-1.41-10.84-1.62-3.37-.2-3.79-.81-7.11-.89l-3.35-.09-6.37-.37c-6.18-.36-12.25-.16-18.37.1l-7.43.31-4.74.31c-5.79.38-21.2,2.45-26.77,3.74l-9.95,2.31-14.96,4.18c4.97-2.96,9.92-5.83,15.26-8.25,1.91-.85,3.82-1.36,5.52-2.52.21-2.84.27-5.55.17-8.34l-2.6-2.24c-.1.1-.18.18-.25.23-.72-.43-3.43-1.54-3.2-1.2-1.61,1.68-4.39-.6-4.56-.65-1.34-.39-3.45.05-4.32-1.29.28-.75.5-1.59-.39-2.23-.68-4.47.98-1.18.54-4.11.39-.66,1.43.02,1.93-.58-.07-.32-.67-.4-.75-.61-.27-.64,2.2-.89,2.44-1.12-.72-.7.22-1.48.1-1.94-.8-3.42,1.71-3.24,3.86-4.86.17-.4-.57-1.7.05-1.89,4.1-1.27.49-5.04,8.58-4.73.13-.32-.16-.65-.44-1.01,1.32-.61,2.04.27,2.95.68.61.28,1.48.03,2.02.46.62.49.58,1.13.94,1.94.07.18.54.27.6.47.03.13-.18.29-.4.53l2.06,1.96c-.42.4-.82.06-1.16.52,2.35.34.28.94,3.15,2.32.3.16.55-.51.85-.55-.09,3.89,1.13,1.12,1.57,4.56.05.37,1.26.64.85,1.32-.59,1.02-2.33,1.4-1.5,1.51.45.07,1.33.43,1.47.91.1.37-.54.37-.61.81,1.33-.09,2.32-.44,3.19.54-.72,3.05.16,2.76-.4,4.9-1.72.32-2.74,1.76-3.87,2.8-.89.8-2.15-.66-2.88-.85-1.81-.51-3.34.92-4.55,1.76-1.47,1.02-2.36,1.98-2.31,4.02l.12,4.62c8.6-3.27,17.28-5.71,26.46-7.43-.46-1.8,1.63-16.83.12-16.08-.65.31-1.09.91-2.1,1.14,1.4.62,2.38,1.83,2.28,3.52-2.07-2.4-4.3-4.08-7.28-4.77-1.17-.27-1.35.68-1.92,1.13-1.12.89-1.93-.85-2.7-1.21l-2.89-1.31c-1.58-.72.46-3.78,2.18-4.45-1.87-1.68-1.18,2.43-4.25,1.35,1.32-1.79.36-2.29,2.17-2.62-.52-.32-.72-.75-.57-1.31.15-.6,3.62-2.75,5.31-2.31-.88-.77-1.62-.29-2.99-.9,2.73-.77-1.32-3.12,5.3-5.25-.3-.64-.92-1.98-.24-2.4,1.17-.6,2.7-.92,3.42-2.09.01-.38-.37-1.09-.08-1.51.17-.25.76-.3.96-.54.85-1.05,1.73-.44,2.66-.61.84-.16,1.53-.45,2.55-.34.25.03.59-.79.92-.65.25.1.52.46.81.54,1.03.3,1.83.47,2.2,1.71.27-.3.34-.54.53-.67.23-.15.77-.14.7.16-.12.5-.32.84-.15,1.13.36.6,2.45.43,2.66,1.21.25.97.74,1.53.87,2.28l.44,2.81c1.29.25,2.6.09,3.87.57.2,1.07-.37,2-.39,3.02-.01.17.39.38.3.62-.07.22-.65-.06-.82.07-1.2.83,1.62.61,1.84,2.23-.68.45-1.27.07-2.18.49l2.32,1.29c.65.37,1.29.42,1.43,1.09.12.55-.46.99-.57,1.39.15.39.89.65.89,1.03.01.49-.02,1.04-.37,1.47l-3.69,4.73c-1.17-.34-2.37,0-3.4-.38-.88-.31-1.47-.75-2.37,0-2.28,1.88-4.51,2.36-4.61,3.73-.27,3.43.09,6.61.29,10.1,8.72-1.43,16.52-1.73,25.58-1.7-1.89-4.08-6.3-6.37-8.2-8.3,3.71,1.65,6.17,4.26,8.54,6.97-.09.85.37.74.47-.01-2.73-6.18-6.93-10.88-11.78-16.12,5.59,2.23,9.06,7.46,12.57,12.39-.67-2.6-1.77-4.86-2.8-7.26-1.81-4.23-3.63-8.19-5.89-12.28,3.56,3.47,5.95,7.65,8.35,11.89.35-1.71-.5-3.44,1.01-4.67-.46,2.95-.22,5.81,1.28,8.7,1.4-11.47,1.2-6.2-3.86-16.58,2.41,1.92,4,4.42,5.79,6.67,1.01-2.95,1.93-5.75,3.78-8.4l-2.37,10.04,2.89,5.49c1.84.64-1.04-8.03-.61-9.37,1.37,2.13,2.03,4.38,2.47,7.05.25-1.16,1.61-2.15,1.71-3.44.24-3.06-.58-6.02-1.26-9.05.96.25.73,1.31,1.06,2,.9,1.92,1.41,3.64,2.2,5.98l3.95-5.64c.23-.25.61-.12.38.22-3.22,7.75-4.37,4.93-3.12,14.95,3.56-6.1,1.69-3.11,1.42-8.69,1.29.82.66,2.25,1.41,3.81.97-2.32,2.41-4.17,3.95-6.12,1.32-1.68,2.31-3.44,3.97-4.75-2.5,4.15-4.66,8.26-6.52,12.73-.79,1.86-1.81,3.42-2.08,5.3l2.36-3.66.06,1.34c3.35-3.04,1.32-2.82,2.67-5.03l.2,2.08c2.51-2.21,5-4.29,7.87-5.97-4.71,4.97-8.79,10.03-11.96,16.02l4.25-3.79c1.66-1.48,3.39-2.68,5.48-3.52-4.16,3.72-7.96,5.88-11.68,10.77,8.98,1.77,17.45,3.99,25.87,7.41.09-2.39-.32-4.44.28-6.72-1.14-1.26-2.39-2.67-3.75-3.74-.36.27-.79.86-1.01.65-.23-.23-.18-.58-.44-1.02-.31.53-.69,1.03-1.35.97-.47-.03-1.07-.18-1.39-.73-1.11-2.01-2.72.02-4-1.88-.37-.57-.74-1.36-.13-1.98.45-.05.83-.23.43-.42-.65.15-1.24-.01-1.37-.27-.12-.18-.18-.8-.03-1.09.43-.82,1.43-.95,2.45-.69.17-.95.24-1.93-.03-2.9,1.34-.7,1.28-2.15.74-3.55.61-.73,1.5-.75,2.25-1.16.97.45,2,1.33,3.21.5-1.55-.34-2.68-1.1-2.72-2.62,1.39-.46,2.67-.35,3.82-.89-.43-.43-1.27-.9-.92-1.36,1.01-1.34,2.81-.92,4.18-1.25,1.2-.27,1.86-.09,2.96.24.72.22,1.54-.02,1.99,1.07.24.59.87.83,1.29,1.14.99.73.92,2.35,1.7,3.25.66.79,1.95.72,2.91,1.26-.65,2.81,1.33,2.63.47,4.48-.22.46-.6.97-1.44.57-.47-.24-.5.58-.05.6,1.07-.12,1.94.32,2.51,1.05.4.51.62,1.86.21,2.62-.6,1.13-.38,2.01-.58,3.08-.25,1.46-2.76,1.14-3.71.62-2.14-1.14-3.91.17-5.15,1.68-2.2,2.65-.2,4.96-.7,9.42,12.43,4.96,23.87,12.69,33.83,21.45l10.98,9.66c-6.3-.8-11.89-1.71-17.84-2.35l-5.72-.62-3.05-.08c-7.56-.2-14.96-.37-22.53,0l-4.76.23c-12.11.6-23.96,1.94-35.93,3.67-2.46.36-4.69,1.1-7.13,1.05-1.01-.02-1.55.37-2.43.55l-24,5.05c-9.31,1.96-18.23,4.64-26.95,8.4-1.73.74-2.96,1.19-4.96,1.19l-31.61-.09-14.68-.46c-5.04-.15-10.29-1.1-15.26-2.24-.12,3.63.07,6.9.12,10.37l.2,18.32.31,28.93c.03,3,.07,5.77.31,8.65,15.78-4.76,31.34-9.53,47.29-13.36-6,3.56-12.03,5.48-18.38,8.24,3.63,5.83,7.86,11.28,13.04,15.89,9.82,8.73,17.84,14.18,29.7,19.87,15.89,7.63,33.77,11.46,51.33,10.71l5.26-.23c7.58-.32,14.77-2.04,22.08-4.22,17.25-5.13,32.95-13.68,46.42-25.65,5.45-4.84,9.9-10.51,13.89-16.5-6.75-2.43-12.94-4.7-18.4-8.08l47.55,13.25.24-9.09.37-18.02.35-18.61.23-11.01c.07-3.22.5-6.37.1-9.54ZM194.34,39.83c-9.12-8.04-19.36-14.43-30.78-18.76-23.35-8.86-48.91-8.5-72.21.65-22.18,8.72-40.82,25.45-52.27,46.34-4.25,7.78-7.35,15.61-9.67,24.09-2.02,7.42-2.87,14.7-3.96,22.22-.39-4.86.39-9.22,1.2-13.99,3.43-20.3,12.47-39.43,26.48-54.57,8.97-9.68,19.27-17.75,31.21-23.33,11.98-5.61,24.56-8.85,37.74-9.74,37.99-2.58,73.27,16.94,93.09,49.08,9.45,15.32,14.65,32.95,15.59,50.74.45-1.34.51,6.16.05,5.63-.49-.77-.67-2.23-.38-2.93-.45-9.57-2.41-19.01-5.28-28.36-5.66-18.42-16.38-34.36-30.8-47.06ZM76.18,136.97c1.16-2.65,4.25-4.09,7.15-3.29,2.62.72,4.11,3.08,3.82,5.72l-8.65.07c-.16,1.78.68,3.33,2.01,4,3.25,1.63,5.36-1.2,5.88-1.12,2.2.32-3.59,5.6-8.49,2.13-2.47-1.77-2.84-4.91-1.72-7.5ZM83.44,162.88c4.24,2.04,8.85,1.55,9.44,5.49.3,1.96-.54,3.71-2.41,4.64-5.33,2.68-8.32-1.61-10.66.67-.14-.62-1.28-7.57.2-5.72.14.17.47.36.62.74,1.22,3.21,4.67,4.64,7.89,3.47,1.11-.4,1.77-1.44,1.71-2.45-.21-3.22-5.27-2.43-8.73-4.59-1.31-.81-2.04-2.11-1.95-3.54.28-3.89,6.62-4.42,9.86-2.92.67-.17,1.09-.66,1.95-.7.17.92.92,4.4.47,4.6-.2.08-.59.06-.77-.27-1.43-2.45-4.41-3.78-7.19-2.99-.85.23-1.5.94-1.57,1.64-.08.69.4,1.57,1.16,1.93ZM69.92,130.66c-.59-.7-1.54-.3-2.04-1.32,1.61-.6,2.96-.89,4.79-1.32l.14,15.47,1.95,1.58c-2.3.23-4.32.3-6.9-.03,1.19-.98,2.1-.99,2.09-2.37l-.03-12.02ZM72.76,167.46v.34h-8.58v-.34h8.58ZM62.27,130.2c.23-.18.92-.22.95.21l.14,3.27c1.55.42,3.4-.43,3.69.61.06.22-.06.67-.42.67l-3.27-.03-.06,6.94c-.01.98.31,1.76,1.17,2.13.76.32,1.59-.06,2.69-.52-.01,1.65-1.49,1.93-2.82,2.1-1.68.21-3.49-.53-3.66-2.37-.24-2.7-.05-5.35-.07-8.15-.65-.46-1.44.27-2.25-.79,3.8-1.57,2.83-3.2,3.92-4.08ZM45.53,128.57c.87-.01,1.51.47,1.71,1.17.24.84-.12,1.78-1.25,1.99-1.39.25-2.15-.39-2.23-1.47-.08-.97.6-1.69,1.77-1.69ZM40.99,145.28l-13.02-.05c-.39-.01-.65-.24-.64-.51.01-.7,2.25-.42,2.26-1.54.07-4.12.12-8.16-.03-12.24-.76-.59-1.73-.3-2.25-1.36,2.67-.4,5.23-.1,8.02-.17.55,1.48-2.52.05-2.39,3,.15,3.84-.21,7.49.18,11.31,1.96.46,4.06.43,5.87-.21,1.32-.46,1.35-1.87,2.9-2.73.23,1.54-.67,2.84-.9,4.48ZM42.67,145.21l1.62-1.61c1.44-1.42.14-5.3.12-7.96-.64-.54-1.42-.5-1.94-1.24,1.51-.84,3.08-.57,4.7-.98l.17,10.21c.46.84,1.61.24,2.08,1.49-2.26.21-4.29.1-6.75.08ZM54.92,145.6c-2,.21-3.59-1.06-3.62-3.1l-.05-7.6c-.7-.25-1.35.24-1.98-.66,3.65-1.44,2.77-2.95,3.89-4.06,1.49-1.47.73,3.22,1.07,3.54.99.24,3.2-.22,3.5.29.1.2.07.76-.27.84-1.11.29-2.02.01-3.34.01.14,2.63-.3,5.34.18,8.16.29,1.63,2.41,1.06,3.62.57-.14,1.53-1.71,1.88-3.03,2.01ZM211.31,183.3c-.74,1.77-2.33,2.88-3.4,4.38-1.4.51-1.69,1.92-2.58,2.84-11.29,11.73-26.36,20.31-41.64,25.76-14.03,5-29.16,7.22-44.02,6.24-4.33-.29-8.57-.96-12.79-1.65l-2.9-.47c-17.21-2.83-47.23-19.27-57.72-34.2-1.01-.79-2.08-1.59-2.4-2.9h167.44ZM122.67,139.83c1.61,1.32.83,3.96-.97,4.92-2.04,1.11-4.1.66-6.24.47l-2.07-.2c-.18-1.14-.65-2.28-.4-3.49.4-1.95,2.2,4.56,7.07,2.52.7-.29.97-1.09.91-1.68-.2-2.5-7.93-1.05-8.08-5.4-.16-4.67,7.23-3.2,7.39-3.19l1.86.08c.15,1.19.88,2.24.09,3.55-1.51-2.2-3.54-3.29-5.92-2.47-.64.22-1.07.82-1.06,1.36.09,2.17,4.94,1.5,7.41,3.51ZM116.37,162.39c1.98.28,4.18-.62,6.24.24-.42.57-1.09.5-1.26.77-.3.47-.16,1.02.02,1.5l2.22,5.64,2.73-6.9c-.82-.36-1.65-.35-1.7-1.28,1.51-.01,3.02-.28,4.39.13.61.52-.72.9-.89,1.28l-4.53,9.73c-.17.37-1.42.4-1.59.01-1.36-2.92-2.44-5.78-3.7-8.93-.31-.79-.97-1.72-1.64-1.39-.29.29-.07,1.26-.65,1.53-1.62.73-2.15-.91-3.26-.53-1.98.68-1.48,5.49-1.29,7.65.08.97,1.86.66,2.08,1.29.03.13-.05.5-.28.5-2.2-.05-4.33.02-6.65-.21.43-1.02,1.35-.66,1.87-1.28.14-2.47.08-4.9.07-7.41-.01-1.03-1.12-.96-1.96-1.81,1.47-.74,2.99-.67,4.53-.96l.15,2.2c3.02-3.26,3.56-1.99,5.11-1.77ZM129.11,133.7c1.12.21,2.11-.02,3.3.09.45.05.42,1.16-.03,1.14l-3.32-.03.05,7.36c.01,1.24.83,1.92,1.94,1.78.7-.09,1.25-.44,1.95-.37-.36,1.51-1.84,1.89-3.33,1.94-1.66.06-3.3-.98-3.32-2.75l-.06-7.82c-.59-.52-1.39.22-2.2-.73,3.86-1.78,2.66-3.04,3.87-4.12,1.66-1.5.77,2.88,1.13,3.51ZM149.48,135.62c-.65-.64-1.5-.35-2.09-1.2,1.57-.52,2.95-.9,4.52-.89.5.05.2,1.09.47,1.68,1.69-1.36,3.7-2.15,5.81-1.62,4.37,1.09,2.13,6.34,2.85,10.26.57.52,1.46.21,1.79,1.26-2.33.23-4.46.17-6.74.03.32-1.1,1.14-.75,1.83-1.12.27-2.29.06-4.52.08-6.86.01-1.18-.83-2.03-2.11-2.07-1.12-.01-3.1.52-3.43,1.84-.54,2.1.01,4.4-.21,6.61.52.82,1.5.34,1.93,1.59-2.24.16-4.31.18-6.55.02-2.08-.15,1.77-.54,1.84-2.14.09-2.48.12-4.91.01-7.39ZM193.36,135.45c-.75-1.05-3.06-1.02-3.47.2-.27.81-.31,1.62-.84,1.76-.7.18-1.57.15-1.85-.32-.29-.5-.45-1.54.1-2.08,2.11-2.07,5.82-2.11,8.24-.38,2.83,2.02-1.11,10.95,3.07,9.54.62.72-.77,1.29-1.53,1.39-1.43.18-2.66-.09-3.18-1.64-1.36,1.02-2.77,1.81-4.76,1.68-1.7-.12-2.8-1.07-3.1-2.29-.38-1.54.37-2.78,1.73-3.63,1.63-1.02,3.67-.85,5.65-1.19.7-.37.45-2.29-.08-3.03ZM190.61,167.39c.62-.07,1.4-.75,1.69.44l-9.74-.17c2.62-.51,5.27.05,8.05-.27ZM183.48,137.72c-2.03,1.41-4.64,1.47-7.21,1.26-.25,1.47-.23,3.19.05,4.78.75.74,1.87.01,2.59,1.25-1.1.22-8.48.62-8.39-.28.09-.86,2.33.02,2.31-2.22l-.1-11.59c-.84-.74-2.03-.06-2.58-1.48,4.54.34,13.55-1.64,15.11,3.14.6,1.85-.07,3.94-1.78,5.13ZM171.69,162.18c.09,1.22.84,2.29.1,3.65-1.55-2.37-3.72-3.48-6.07-2.41-.49.23-.68.77-.68,1.19-.01,2.4,6.9,1.4,7.91,4.55.42,1.28,0,2.61-1.09,3.44-2.77,2.15-5.67,1.04-8.84.51-.13-1.14-.81-2.38.12-3.73,1.59,2.85,4.4,4.1,7.05,2.59.55-.31.42-1.37.14-1.78-1.21-1.86-7.98-.98-7.64-5.25.32-3.92,6.23-2.92,8.99-2.76ZM153.57,171.02c.9,1.05,2.4,1.66,3.7,1.16l3.47-1.37c-1.11,2.91-4.76,3.7-7.53,2.62-2.85-1.12-4.16-4.19-3.37-7.23.76-2.91,3.74-4.81,6.97-4.19,2.72.51,4.48,2.96,4.14,5.6l-8.03.15c-.92.62.08,2.58.67,3.27ZM147.34,163.11c.44.53,1.04,1.85.44,2.58-1.64,1.95-2.97-2.33-3.86-2.52-.82-.17-1.69-.15-2.41.45-2.23,1.86-2.2,7.26,1.07,8.38,3.5,1.21,4.42-2.01,5.37-1.37.66.44-1.51,3.84-5.88,3.18-1.77-.27-3.88-1.58-4.48-3.66-.66-2.29-.37-4.6,1.14-6.2,2.75-2.91,7.44-2.24,8.61-.82ZM145.87,142.35c-1.16,2.2-3.72,3.48-6.45,3.25-3.08-.27-5.36-2.68-5.52-5.63-.17-3,1.78-5.8,4.96-6.39,2-.36,4.3-.06,6,1.44,2.06,1.83,2.22,5.06,1.02,7.32ZM131.47,164.03c-.37-.39-1.66-.35-1.49-1.28,1.54-.37,2.92-.57,4.42-.68l.12,9.97c.52.73,1.47.32,2.06,1.36-.72.18-7.11.6-6.67-.37.27-.58,1.87-.32,1.77-1.86-.15-2.4.3-4.83-.21-7.14ZM134.5,159.06c0,.92-.75,1.68-1.66,1.68s-1.68-.75-1.68-1.68.75-1.66,1.68-1.66,1.66.75,1.66,1.66ZM112.21,145.27l-7.59-.14c.49-1.26,1.51-.68,2.21-1.31-.15-1.41-.65-2.55-1.04-4.31l-6.11-.15c-.59,1.37-1.86,3.56-1.21,4.56.12.18,4.48,1.19,1.86,1.25-2.08.05-4.21.23-6.37-.12.4-1.02,1.31-.76,1.93-1.39,2.35-4.81,4.52-10.01,6.52-14.89.43-.42,2.07-.59,2.29-.02l5.89,15.02c.23.59,1.94.28,1.63,1.49ZM99.3,171.81c3.48,1.79,5.34-2.24,6.17-.83-1.07,2.18-3.63,3.21-6.17,2.84-2.25-.34-4.45-2.03-4.9-4.64-.47-2.83.69-5.46,3.14-6.65,2.37-1.17,5.5-.76,7.21,1.55.74.99.82,2.32.84,3.55l-8.23.02c-.39,1.87.55,3.48,1.93,4.17ZM209.12,136.15c-.81.72-1.71.09-2.59-.42-1.14-.65-2.32.94-2.45,2.09-.2,1.85-.02,3.57-.07,5.67.67,1.16,2,.16,2.65,1.63-2.62.18-4.96.21-7.42-.01.35-.98,1.1-.74,1.78-1.11l.09-8.53c-.72-.53-1.57-.25-2.2-1.05,1.57-.72,3-.67,4.7-1.07.47.75-.09,1.48.36,2.48.97-1.76,2.99-3,5.01-2.15.94.4.73,1.94.13,2.46ZM219.5,145.16c-.14-.57.23-1.29-.32-1.79-1.18-1.06-1.71-2.83-3.04-3.73-1.51-.06-1.31,3.58-.91,4.1.39.52,1.65.61,1.87.98.59.99-5.9.43-7.08.34.45-1.06,1.47-.68,2.14-1.32l.09-12.33c.01-1.74-1.59-1.12-1.95-1.56-.08-.1-.14-.6.06-.65l4.64-1.16.07,10.74c1.39-1.12,3-1.99,4.14-3.45.43-.54-.45-.9-.72-1.48.81-.05,7.42-.53,4.23.94-1.65.75-2.95,1.95-4.1,3.23,1.11,1.63,2.29,3,3.26,4.6.77,1.26,1.84,1.39,3.32,2.33-1.87.62-3.82.17-5.68.2ZM222.67,121.31c-2.87-.15-5.57.25-8.4.29l-20.75.23h-51.91l-62.92-.38c4.25-1.04,8.46-1.8,12.94-2.88,12.99-3.11,25.84-5.22,39.13-6.17l6-.43,4.71-.31,7.11-.38c17.34-.91,47.3.36,63.83,5.13l14.27,4.11c-1.2.92-2.61.85-4.01.79Z"/>
            <path class="cls-3" d="M118.3,164.59c-.31-.79-.97-1.72-1.65-1.38-.29.28-.06,1.26-.64,1.52-1.61.73-2.14-.91-3.25-.53-1.98.68-1.49,5.49-1.3,7.65.08.97,1.86.65,2.07,1.29.04.13-.05.5-.27.49-2.2-.05-4.33.03-6.65-.2.42-1.02,1.35-.66,1.86-1.29.14-2.47.09-4.9.07-7.4,0-1.04-1.12-.96-1.96-1.81,1.47-.74,2.99-.67,4.53-.97l.15,2.19c3.01-3.25,3.55-1.98,5.11-1.76,1.97.28,4.18-.62,6.23.24-.41.56-1.08.5-1.26.77-.3.47-.17,1.01.02,1.5l2.22,5.64,2.72-6.9c-.81-.35-1.65-.34-1.69-1.28,1.51,0,3.01-.27,4.38.13.62.51-.71.9-.89,1.28l-4.53,9.72c-.17.37-1.42.41-1.6.02-1.36-2.92-2.44-5.78-3.69-8.93Z"/>
            <path class="cls-3" d="M185.26,132.59c-1.56-4.78-10.57-2.81-15.11-3.14.54,1.42,1.73.74,2.58,1.48l.1,11.59c.02,2.24-2.22,1.36-2.31,2.22-.09.9,7.29.5,8.39.28-.72-1.24-1.84-.51-2.59-1.25-.28-1.59-.3-3.32-.05-4.78,2.56.21,5.18.15,7.21-1.26,1.71-1.19,2.38-3.28,1.78-5.13ZM182.15,134.84c-.37,2.89-3.29,3.32-6.01,2.92l-.09-7.14c1.76-.25,3.65-.24,5.12.9,1.01.77,1.14,2.13.98,3.32Z"/>
            <path class="cls-3" d="M90.46,173.01c-5.32,2.68-8.32-1.61-10.66.67-.15-.63-1.29-7.57.19-5.72.14.17.48.36.63.74,1.22,3.21,4.67,4.64,7.9,3.46,1.1-.4,1.77-1.44,1.71-2.45-.2-3.22-5.26-2.42-8.73-4.58-1.3-.81-2.04-2.12-1.95-3.54.27-3.9,6.62-4.43,9.85-2.93.67-.17,1.09-.66,1.96-.7.17.92.93,4.4.47,4.59-.19.08-.59.06-.77-.26-1.43-2.46-4.41-3.78-7.19-3-.85.24-1.49.94-1.57,1.65s.41,1.57,1.16,1.93c4.24,2.04,8.85,1.54,9.44,5.49.29,1.96-.54,3.7-2.42,4.64Z"/>
            <path class="cls-3" d="M110.58,143.78l-5.89-15.02c-.22-.57-1.86-.39-2.29.02-2,4.89-4.17,10.09-6.52,14.89-.62.62-1.53.37-1.93,1.39,2.16.35,4.29.16,6.37.12,2.62-.06-1.74-1.06-1.86-1.25-.65-1.01.62-3.19,1.21-4.56l6.11.15c.39,1.76.89,2.9,1.04,4.31-.69.62-1.72.05-2.21,1.31l7.59.14c.31-1.21-1.4-.9-1.63-1.49ZM100.01,138.13c1.03-2.11,1.74-4.09,2.58-6.45l2.61,6.45h-5.19Z"/>
            <path class="cls-3" d="M219.51,145.17c-.14-.57.22-1.3-.32-1.79-1.19-1.06-1.72-2.83-3.05-3.74-1.51-.05-1.3,3.59-.91,4.1s1.65.62,1.87.98c.6.99-5.91.44-7.08.34.44-1.07,1.46-.68,2.13-1.33l.09-12.33c.01-1.75-1.59-1.12-1.95-1.55-.09-.11-.15-.6.05-.65l4.65-1.15.07,10.74c1.39-1.11,3.01-1.98,4.14-3.45.42-.54-.45-.9-.72-1.47.81-.05,7.43-.53,4.23.93-1.66.76-2.94,1.96-4.1,3.24,1.12,1.62,2.29,3,3.26,4.59.77,1.26,1.84,1.39,3.32,2.34-1.87.62-3.83.17-5.69.2Z"/>
            <path class="cls-3" d="M155.89,135.09c-1.13-.02-3.1.52-3.44,1.83-.54,2.1.02,4.41-.2,6.61.52.82,1.5.33,1.92,1.6-2.24.16-4.31.18-6.55.02-2.07-.15,1.77-.55,1.83-2.14.09-2.48.12-4.91.02-7.39-.65-.63-1.51-.35-2.09-1.2,1.56-.52,2.94-.91,4.52-.9.49.05.19,1.09.47,1.69,1.68-1.36,3.69-2.15,5.81-1.62,4.36,1.09,2.12,6.34,2.85,10.26.56.52,1.45.21,1.79,1.26-2.34.23-4.46.17-6.74.03.33-1.09,1.14-.74,1.82-1.12.28-2.29.06-4.51.09-6.87.01-1.17-.83-2.03-2.11-2.06Z"/>
            <path class="cls-3" d="M198.61,144.16c-4.18,1.41-.24-7.52-3.07-9.54-2.41-1.73-6.12-1.69-8.24.38-.55.54-.39,1.58-.1,2.08.28.47,1.14.51,1.85.32.53-.14.58-.95.84-1.76.4-1.21,2.72-1.25,3.47-.2.53.74.79,2.66.08,3.03-1.98.34-4.02.17-5.65,1.19-1.36.84-2.11,2.09-1.73,3.63.3,1.21,1.4,2.17,3.1,2.29,1.99.14,3.4-.66,4.76-1.68.52,1.55,1.74,1.83,3.18,1.64.75-.09,2.15-.67,1.53-1.39ZM192.98,143.29c-.97.65-2.32,1.16-3.43.35-.65-.47-.66-1.41-.44-2.11.46-1.47,2.92-2.01,4.33-1.56.87.79.35,2.8-.46,3.33Z"/>
            <path class="cls-3" d="M41.89,140.8c.23,1.54-.67,2.84-.91,4.48l-13.02-.05c-.4,0-.64-.24-.64-.5.02-.71,2.25-.42,2.27-1.54.07-4.13.11-8.16-.04-12.24-.77-.59-1.73-.29-2.25-1.36,2.66-.4,5.22-.1,8.02-.16.54,1.47-2.52.04-2.4,3,.16,3.83-.2,7.49.19,11.31,1.96.47,4.05.42,5.87-.21,1.32-.46,1.35-1.87,2.9-2.72Z"/>
            <path class="cls-3" d="M144.86,135.02c-1.7-1.5-4-1.8-6-1.44-3.18.59-5.13,3.39-4.96,6.39.16,2.95,2.44,5.36,5.52,5.63,2.73.23,5.29-1.05,6.45-3.25,1.2-2.26,1.04-5.5-1.02-7.32ZM140.93,144.27c-1.35.18-2.63-.24-3.35-1.54-1.16-2.11-1.17-4.86.18-6.93.73-1.11,2.2-1.28,3.45-.97.95.24,1.88,1.24,2.16,2.51.53,2.44.36,6.55-2.45,6.93Z"/>
            <path class="cls-3" d="M99.3,171.81c-1.37-.69-2.32-2.3-1.93-4.17l8.23-.02c-.02-1.22-.1-2.55-.84-3.55-1.71-2.31-4.84-2.72-7.21-1.55-2.45,1.19-3.62,3.82-3.14,6.65.45,2.61,2.65,4.31,4.9,4.64,2.54.37,5.1-.66,6.17-2.84-.83-1.41-2.69,2.62-6.17.83ZM98.24,163.77c.72-.68,1.83-.98,2.81-.47.92.47,1.57,1.5,1.41,3.17-1.62.09-3.18.24-4.9,0-.68-.55.07-2.11.68-2.69Z"/>
            <path class="cls-3" d="M160.93,167.6c.35-2.65-1.42-5.1-4.14-5.6-3.22-.61-6.2,1.28-6.97,4.19-.79,3.04.52,6.11,3.37,7.23,2.77,1.07,6.42.29,7.53-2.62l-3.47,1.37c-1.29.51-2.8-.1-3.7-1.16-.59-.69-1.59-2.65-.67-3.27l8.03-.15ZM153.94,163.37c.84-.54,2.13-.46,2.82.07.75.59,1.13,1.52.95,2.99-1.85.2-3.37.09-5.16.07-.03-1.21.36-2.46,1.4-3.13Z"/>
            <path class="cls-3" d="M87.16,139.4c.29-2.63-1.2-5-3.82-5.72-2.9-.8-6,.65-7.15,3.29-1.12,2.59-.75,5.73,1.72,7.5,4.9,3.48,10.69-1.8,8.49-2.13-.52-.08-2.63,2.75-5.88,1.12-1.33-.67-2.17-2.22-2.01-4l8.65-.07ZM78.47,138.49c.13-1.31.51-2.63,1.64-3.39.8-.53,2.29-.5,3,.1.88.74.98,1.85,1.06,3.19l-5.71.09Z"/>
            <path class="cls-3" d="M121.71,144.75c-2.06,1.1-4.11.66-6.24.46l-2.07-.19c-.19-1.15-.65-2.28-.41-3.49.4-1.96,2.19,4.55,7.07,2.51.71-.29.96-1.08.92-1.68-.21-2.49-7.92-1.05-8.08-5.39-.16-4.66,7.24-3.2,7.39-3.19l1.87.09c.15,1.18.87,2.24.08,3.55-1.51-2.2-3.53-3.3-5.92-2.47-.63.22-1.08.82-1.05,1.36.09,2.18,4.94,1.51,7.4,3.52,1.61,1.32.84,3.96-.97,4.93Z"/>
            <path class="cls-3" d="M171.88,172.6c-2.78,2.15-5.67,1.04-8.84.51-.13-1.15-.8-2.38.11-3.73,1.59,2.85,4.4,4.1,7.05,2.58.55-.31.41-1.37.14-1.78-1.22-1.85-7.99-.98-7.64-5.24.32-3.92,6.23-2.93,8.99-2.77.1,1.22.84,2.28.11,3.65-1.55-2.37-3.72-3.48-6.07-2.41-.49.22-.68.77-.68,1.18-.02,2.41,6.89,1.4,7.92,4.56.42,1.28,0,2.61-1.09,3.44Z"/>
            <path class="cls-3" d="M141.51,163.62c-2.23,1.85-2.2,7.25,1.07,8.38,3.5,1.21,4.43-2.02,5.37-1.38.66.44-1.51,3.84-5.89,3.18-1.77-.26-3.88-1.59-4.47-3.66-.66-2.3-.37-4.6,1.14-6.21,2.75-2.91,7.43-2.24,8.61-.83.44.53,1.04,1.85.43,2.58-1.63,1.95-2.97-2.33-3.86-2.52-.82-.17-1.69-.15-2.41.45Z"/>
            <path class="cls-3" d="M54.34,143.03c.28,1.62,2.41,1.06,3.62.56-.14,1.53-1.71,1.89-3.04,2.02-1.99.2-3.59-1.07-3.61-3.1l-.05-7.6c-.7-.26-1.35.23-1.98-.67,3.66-1.45,2.78-2.95,3.9-4.05,1.49-1.47.73,3.22,1.08,3.53.99.25,3.2-.22,3.5.29.11.2.07.76-.26.84-1.1.29-2.02,0-3.34,0,.13,2.64-.3,5.34.19,8.16Z"/>
            <path class="cls-3" d="M204.01,143.5c.67,1.15,2,.16,2.65,1.63-2.62.18-4.96.21-7.41-.01.34-.99,1.1-.74,1.78-1.11l.09-8.52c-.71-.53-1.57-.26-2.19-1.06,1.57-.71,3-.66,4.7-1.07.48.75-.09,1.48.36,2.48.96-1.75,2.99-3,5.01-2.14.93.4.72,1.94.13,2.46-.81.71-1.71.08-2.59-.42-1.14-.65-2.33.93-2.45,2.09-.2,1.84-.02,3.56-.07,5.67Z"/>
            <path class="cls-3" d="M67.86,145.05c1.2-.98,2.1-.99,2.1-2.37l-.04-12.01c-.59-.7-1.54-.3-2.04-1.32,1.61-.6,2.95-.89,4.79-1.33l.15,15.47,1.94,1.59c-2.3.23-4.32.3-6.9-.04Z"/>
            <path class="cls-3" d="M63.3,141.87c0,.99.31,1.76,1.16,2.12.77.33,1.6-.06,2.7-.52-.02,1.65-1.5,1.93-2.82,2.1-1.67.21-3.49-.53-3.66-2.36-.25-2.7-.04-5.35-.07-8.15-.65-.46-1.45.26-2.26-.78,3.81-1.57,2.83-3.2,3.92-4.07.23-.19.93-.22.95.2l.14,3.27c1.55.42,3.4-.43,3.69.61.06.21-.06.67-.41.67l-3.27-.03-.06,6.94Z"/>
            <path class="cls-3" d="M129.11,142.27c0,1.24.83,1.91,1.94,1.77.7-.09,1.24-.43,1.95-.37-.36,1.52-1.84,1.9-3.32,1.95-1.66.05-3.31-.99-3.32-2.75l-.05-7.82c-.59-.52-1.38.22-2.2-.73,3.85-1.77,2.66-3.03,3.87-4.12,1.66-1.5.77,2.88,1.13,3.51,1.11.21,2.11-.02,3.3.1.46.04.42,1.15-.03,1.14l-3.32-.04.05,7.37Z"/>
            <path class="cls-3" d="M42.67,145.21l1.62-1.6c1.44-1.43.14-5.31.12-7.97-.64-.54-1.43-.49-1.95-1.23,1.51-.85,3.08-.57,4.7-.99l.18,10.22c.46.84,1.61.23,2.08,1.48-2.26.21-4.29.1-6.74.08Z"/>
            <path class="cls-3" d="M136.57,173.41c-.71.18-7.1.59-6.67-.37.26-.58,1.87-.33,1.77-1.87-.16-2.4.3-4.83-.21-7.14-.37-.39-1.66-.34-1.5-1.28,1.54-.36,2.93-.57,4.43-.68l.12,9.97c.52.73,1.46.33,2.05,1.37Z"/>
            <path class="cls-3" d="M45.99,131.73c-1.39.25-2.14-.4-2.23-1.48-.08-.96.6-1.68,1.77-1.69.87,0,1.51.47,1.71,1.18.24.84-.11,1.78-1.25,1.99Z"/>
            <circle class="cls-3" cx="132.84" cy="159.07" r="1.67"/>
            <path class="cls-2" d="M192.3,167.83l-9.74-.17c2.63-.51,5.27.05,8.05-.26.62-.07,1.4-.75,1.69.44Z"/>
            <rect class="cls-2" x="64.18" y="167.47" width="8.59" height=".34"/>
            <path class="cls-1" d="M182.16,134.84c-.37,2.88-3.3,3.32-6.01,2.92l-.1-7.15c1.75-.25,3.65-.24,5.11.9,1.01.78,1.15,2.13.99,3.33Z"/>
            <path class="cls-1" d="M105.19,138.13h-5.18c1.02-2.12,1.74-4.09,2.58-6.44l2.6,6.44Z"/>
            <path class="cls-1" d="M193.44,139.97c.86.78.34,2.79-.47,3.32-.98.65-2.32,1.16-3.43.35-.65-.48-.66-1.41-.44-2.11.46-1.47,2.92-2.02,4.34-1.56Z"/>
            <path class="cls-1" d="M143.38,137.35c.53,2.43.36,6.55-2.45,6.93-1.35.18-2.64-.25-3.35-1.54-1.16-2.11-1.17-4.86.18-6.93.73-1.11,2.19-1.29,3.46-.97.94.24,1.88,1.24,2.16,2.51Z"/>
            <path class="cls-1" d="M102.45,166.46c-1.62.1-3.18.25-4.9,0-.68-.56.07-2.12.68-2.7.72-.68,1.83-.99,2.81-.48.92.48,1.57,1.51,1.41,3.17Z"/>
            <path class="cls-1" d="M157.71,166.43c-1.85.2-3.38.09-5.16.07-.04-1.21.36-2.46,1.39-3.12.85-.54,2.13-.47,2.82.07.76.59,1.14,1.52.95,2.99Z"/>
            <path class="cls-1" d="M84.18,138.4l-5.71.09c.13-1.31.51-2.64,1.64-3.39.8-.53,2.29-.49,3.01.11.88.74.98,1.85,1.07,3.19Z"/>
          </g>
          <g>
            <path class="cls-2" d="M185.31,195.76c-.36.12-.8.05-1.03.67-.41-.9-.67-1.69-.61-2.79.82.37,1.25.79,1.76,1.31.26.26-.04.63-.12.81Z"/>
            <path class="cls-2" d="M43.87,183.3c.32,1.31,1.4,2.11,2.4,2.9,10.49,14.93,40.51,31.37,57.72,34.2l2.9.47c4.22.69,8.46,1.36,12.79,1.65,14.86.98,29.99-1.24,44.02-6.24,15.27-5.45,30.35-14.04,41.64-25.76.89-.92,1.18-2.33,2.58-2.84,1.06-1.5,2.66-2.61,3.4-4.38H43.87ZM63.86,195.28c-.15.34-.88-.31-1.03-.55-.22-.35.1-.68.35-1.19.39-.8-.64-1.17-1.18-1.37-1.53-.58-1.39,2.14-2.97.77,1.11-.73,2.29-1.98,3.69-2.18.15-.16.36-.4.65-.34.02-.95,1.26-1.76,1.93-1.33.15,2-.59,4.33-1.43,6.19ZM68.58,193.69c-.72.83-1.58,1.99-1.81,3.2-.24.23-1.13-.24-1.17-.7,1.47-1.21,2.32-3.06,3.27-4.92,1.37,1.95,1.22,4.07,1.68,6.18,1.32-.89,1.09-2.8,2.85-3.52-.7,2.03-1.8,3.57-3.1,5.66-1.17-1.78-1.09-3.77-1.72-5.89ZM79.13,201.29c-.61.81-1.65,1.72-2.98,1.51-1.42-.23-2.6-1.11-3.57-2.06,1.16-1.83,2.07-3.54,2.9-5.49,1.44.68,2.99,1.25,3.86,2.61.73,1.16.57,2.4-.21,3.42ZM87.98,201.94c-.57.16-1.83-1.96-2.91-.87-1.13,1.14,2.91,1.95,1.5,4.38-.65,1.11-1.83,1.39-3.2.68-.37-.18-.69-.43-.88-.6-.18-.18.06-1.03.31-.9.62.34.8,1.09,1.33,1.18.62.12,1.44.05,1.61-.7.3-1.35-2.84-2.43-1.5-4.15.57-.73,1.44-1.02,2.41-.54.66.32,1.59.53,1.33,1.52ZM93.57,207.86c-.5,1.25-2.06,1.29-3.28.84-3.44-1.27-.27-4.74-.66-6.91l1.98.45c-1.09,1.26-1.99,3.06-1.77,4.84.13,1.05,2.17,1.57,2.78.81,1.1-1.36,1.39-3.12,1.57-4.73.59-.01.88.08,1.14.3l-1.77,4.39ZM97.72,207.33c-.84.54-.94,2.02-1.01,2.84-2.77.49.72-4.25.32-6.22,2.52.22,3.88.25,4.04,2.37.07.88-1.17.94-1.47,1.46-.44,1.09.66,2.59,1.49,3.47-3.4.18-1.7-3.65-3.39-3.92ZM107.67,207.9c-.12.62-1.02.88-1.46,1.25-.02,1.07.81,2.24,1.14,3.22-2.44.24-1.77-4.09-3.2-3.05-.65.46-.45,1.68-.2,2.44-.53.31-1.28.2-1.86-.07.79-2.04,1.39-3.94,1.24-6.24,1.1.08,4.77.08,4.33,2.45ZM112.47,213.53c-1.87,0-3.39-1.51-3.39-3.4s1.51-3.39,3.39-3.39,3.4,1.51,3.4,3.39-1.51,3.4-3.4,3.4ZM123.68,208.26c-.82,1.26-.02,4.44-1.39,5.58-1.02.84-3.3.73-4.21-.24-1.02-1.11.4-3.91-.45-6.05.77.06,1.1.24,1.5.45-.07,1.69-.62,3.45.01,5.18.25.69,2.28.67,2.69.06,1.78-2.61-.36-5.38,1.27-5.34.27,0,.85-.08.57.37ZM131.17,214.43c-2.62-.45-2.18-2.77-4.75-4.62-.18,1.61-.1,2.88-.01,4.32.02.35-.94.31-.92.06l.28-6.5c2.16,1.5,3.19,3.35,4.74,4.78.29-1.54.37-3.03-.05-4.42.39-.21,1.21-.28,1.16.02-.35,2.24-.4,4.27-.44,6.37ZM138.12,213.72c-1.25.38-2.51.2-3.75.46,0-2.09.17-3.99-.57-6.23,1.41-.27,3.12-.7,4.69-.05,1.19.49,1.63,1.72,1.59,2.82-.03,1.17-.49,2.53-1.96,2.99ZM142,213.41c.52-2.29-.38-4.06-.61-6.03-.06-.5,1.29-.64,1.33-.23.18,2.17.28,4.16.97,6.05-.7.13-1.17.28-1.69.21ZM146.59,212.9c-.72.18-.72-.34-.72-.98-.01-1.81-.6-3.55-.79-5.53,2.39.61,3.35,2.67,5.5,3.47-.06-1.49-.53-2.83-.96-4.16.52-.21.92-.27,1.16-.4l.75,6.79-5.56-3.79c.4,3.82,2.02,4.26.61,4.61ZM156.36,210.51c-2.08.1-3.49-1.4-3.58-3.12-.1-2.03,1.43-3.35,3.54-3.57.76-.08,1.76-.38,1.88.88-1.12-.17-2.31-.6-3.36.09-1.09.7-1.07,2.14-.66,3.33.32.96,1.36,1.77,2.67,1.66.76-.06,1.47-.39,1.47-1.07.01-.77-.35-1.4-1.37-1.64.72-.44,1.43-.51,2.4-.51-.35.91.21,1.87.14,2.7-.64.65-2.09,1.2-3.12,1.25ZM166.57,204.9c-3.04.91.94,3.22-2.48,3.21,1.14-1.21.25-5.22.85-7.41l5.25,5c-2.14,1.69-1.43-1.47-3.62-.81ZM172.32,201.53c.47-.49.98-.99.9-1.55-.09-.53-.29-1.05-.9-1.12-.46-.05-1.71.29-1.46.99l1.32,3.63c.21.58.65.89.98,1.22-.57.36-1.03.5-1.56.6-.61-1.89-1.07-3.84-2.39-5.63l3.04-1.4c.76-.36,1.5.17,1.95.62.68.68-.07,1.55-.54,2.21.64,1.04,2.15,1.4,3.54,1.85-1.43,1.35-4.04-.47-4.88-1.43ZM182.14,199.87c-.08.24-.44.46-.81.66l-3.2,1.71c-.45-2.14-1.63-3.85-2.74-5.56l4.07-2.28c.79,1.55-1.77.96-2.46,2.09-.23.4.6,1.58,1.06,1.49.77-.17,1.24-1.18,2.24-.87-.2,1.04-1.41.79-1.93,1.51-.32.46.36,1.95.92,2,1.05.07,2.03-.97,2.78-1.8.23.15.16.72.06,1.04ZM185.3,195.76c-.17.37-.68,1.05-1.03.67-.25.67-.39,1.55.22,2.15-1.86,2.08-.91-5.03-1.8-6.6l6.46,3.87c-1.71,2.06-1.55-.87-3.85-.09ZM191.39,194.83c-.54.22-.85.31-1.11.27-.27-.05-.7-.67-.51-.98,1.1-.02,2.38-.28,2.6-1.51-.58-.31-4.64.15-4.58-1.93.03-1.28,2.52-3.34,3.3-2.04.28.45-1.02-.03-1.92.77-.31.27-.7,1.43-.07,1.55,1.29.24,2.89-.76,3.86.52.88,1.17-.23,2.83-1.58,3.36Z"/>
            <path class="cls-2" d="M62.72,190.75c.2-.01.42-.04.64-.33.62-.15.75.29.56.68-.12.24-.15.89-.49,1.03-.3.12-.86-.26-1.43-.57.33-.27.73-.38.73-.81Z"/>
            <path class="cls-1" d="M79.34,197.87c-.87-1.36-2.41-1.93-3.86-2.61-.83,1.95-1.74,3.66-2.9,5.49.97.95,2.15,1.83,3.57,2.06,1.33.21,2.37-.7,2.98-1.51.77-1.02.94-2.26.21-3.42ZM78.52,199.64c-.17,1.33-1.03,2.25-1.95,2.46-.74.16-2.62-.46-2.52-1.29.21-1.61,1.64-2.75,2.22-4.4,1.54.21,2.5,1.49,2.25,3.23Z"/>
            <path class="cls-1" d="M138.49,207.91c-1.57-.66-3.28-.22-4.69.05.74,2.24.57,4.14.57,6.23,1.25-.27,2.51-.08,3.75-.46,1.48-.46,1.93-1.83,1.96-2.99.03-1.1-.4-2.33-1.59-2.82ZM138.03,213.01c-.55.31-2.23.73-2.39,0-.35-1.49-.35-2.98-.15-4.51.15-.66,1.85-.22,2.38.12,1.43.89,1.12,3.84.16,4.39Z"/>
            <path class="cls-1" d="M112.47,206.74c-1.87,0-3.39,1.51-3.39,3.39s1.51,3.4,3.39,3.4,3.4-1.51,3.4-3.4-1.51-3.39-3.4-3.39ZM114.57,211.06c-.53,1.29-1.53,1.96-2.44,1.76-1.26-.29-1.78-1.32-1.73-2.59.03-.95.21-1.98.87-2.44.77-.54,2.09-.53,2.77.23.74.81.98,1.98.53,3.04Z"/>
            <path class="cls-1" d="M145.87,211.92c0-1.82-.6-3.55-.78-5.53,2.39.6,3.35,2.67,5.5,3.47-.05-1.49-.54-2.83-.96-4.16.53-.21.93-.26,1.16-.4l.75,6.79-5.56-3.79c.4,3.83,2.03,4.26.61,4.62-.71.18-.71-.34-.72-.99Z"/>
            <path class="cls-1" d="M70.3,199.58c-1.17-1.77-1.08-3.76-1.72-5.89-.71.83-1.58,1.99-1.81,3.2-.25.23-1.14-.24-1.17-.7,1.46-1.21,2.32-3.06,3.27-4.92,1.37,1.94,1.22,4.06,1.67,6.18,1.32-.89,1.08-2.8,2.86-3.53-.71,2.03-1.81,3.56-3.1,5.66Z"/>
            <path class="cls-1" d="M131.17,214.43c-2.62-.45-2.19-2.77-4.75-4.62-.18,1.61-.1,2.87-.01,4.32.02.34-.94.3-.92.06l.28-6.51c2.15,1.5,3.18,3.35,4.73,4.78.29-1.53.37-3.02-.05-4.42.39-.21,1.21-.28,1.17.01-.36,2.25-.41,4.28-.44,6.37Z"/>
            <path class="cls-1" d="M170.86,199.86l1.32,3.63c.21.57.65.88.98,1.21-.57.36-1.03.5-1.55.61-.62-1.9-1.08-3.83-2.39-5.63l3.03-1.4c.77-.35,1.51.18,1.95.62.68.68-.06,1.55-.53,2.21.64,1.04,2.14,1.4,3.53,1.85-1.44,1.35-4.05-.47-4.87-1.43.48-.49.98-1,.89-1.55s-.29-1.05-.9-1.11c-.47-.05-1.71.28-1.45.99Z"/>
            <path class="cls-1" d="M103.33,205.45c.15,2.3-.45,4.19-1.24,6.24.58.27,1.33.38,1.86.07-.25-.76-.45-1.98.2-2.44,1.43-1.04.76,3.29,3.2,3.05-.34-.98-1.17-2.15-1.14-3.22.44-.37,1.34-.62,1.46-1.25.44-2.37-3.24-2.37-4.33-2.45ZM105.94,208.5c-.38.34-1.56.47-1.72-.23-.13-.51.16-1.46.45-1.86.36-.52,1.39-.07,1.65.38.29.5.1,1.29-.38,1.71Z"/>
            <path class="cls-1" d="M99.61,207.78c.3-.52,1.54-.58,1.47-1.46-.16-2.11-1.53-2.15-4.04-2.37.39,1.96-3.1,6.7-.32,6.22.07-.82.16-2.3,1.01-2.84,1.69.27-.01,4.1,3.39,3.92-.83-.88-1.93-2.38-1.49-3.47ZM97.94,206.77c-.44-.39-.29-1.37.28-1.95.4-.42,1.33.12,1.59.46.37.5.2,1.33-.24,1.65-.49.35-1.28.15-1.63-.16Z"/>
            <path class="cls-1" d="M156.94,207.07c.72-.45,1.44-.51,2.41-.51-.35.91.21,1.87.14,2.71-.63.65-2.1,1.2-3.12,1.25-2.09.1-3.49-1.4-3.58-3.13-.11-2.04,1.43-3.35,3.54-3.57.76-.08,1.75-.38,1.87.89-1.11-.17-2.3-.6-3.36.08s-1.07,2.14-.66,3.33c.33.96,1.36,1.77,2.68,1.67.76-.06,1.47-.39,1.47-1.08,0-.77-.35-1.39-1.38-1.63Z"/>
            <path class="cls-1" d="M191.39,194.84c-.54.21-.85.31-1.11.26s-.7-.67-.5-.98c1.1-.03,2.37-.28,2.6-1.52-.58-.31-4.65.16-4.59-1.92.04-1.28,2.53-3.34,3.31-2.04.27.45-1.01-.04-1.93.77-.3.27-.69,1.43-.06,1.55,1.29.24,2.89-.76,3.85.52.88,1.17-.23,2.83-1.58,3.37Z"/>
            <path class="cls-1" d="M178.38,198.64c-.33.46.36,1.95.92,1.99,1.05.07,2.03-.97,2.79-1.8.23.15.16.72.06,1.04-.08.24-.44.46-.81.66l-3.2,1.72c-.45-2.14-1.64-3.85-2.74-5.56l4.07-2.28c.78,1.54-1.77.96-2.46,2.09-.23.4.6,1.58,1.06,1.48.78-.17,1.24-1.17,2.24-.86-.2,1.04-1.4.79-1.92,1.52Z"/>
            <path class="cls-1" d="M94.19,203.18c.6,0,.88.07,1.14.3l-1.76,4.38c-.5,1.25-2.06,1.3-3.29.85-3.44-1.27-.27-4.74-.65-6.91l1.97.45c-1.09,1.26-1.98,3.05-1.77,4.84.13,1.05,2.18,1.57,2.78.81,1.1-1.37,1.39-3.13,1.57-4.73Z"/>
            <path class="cls-1" d="M121.85,213.23c1.77-2.61-.37-5.39,1.27-5.34.27,0,.85-.07.56.37-.81,1.26-.02,4.44-1.38,5.58-1.01.85-3.31.73-4.2-.24-1.02-1.11.4-3.91-.45-6.05.77.06,1.09.24,1.49.45-.06,1.69-.62,3.46.02,5.18.25.69,2.28.67,2.7.06Z"/>
            <path class="cls-1" d="M63.36,190.42c-.22.29-.44.31-.64.33.15-.16.36-.4.64-.33Z"/>
            <path class="cls-1" d="M62.72,190.75c0,.43-.4.54-.73.81.57.31,1.14.69,1.43.57.35-.14.38-.79.49-1.03.19-.39.06-.83-.56-.68.03-.96,1.26-1.76,1.93-1.33.14,2-.59,4.33-1.43,6.19-.15.34-.88-.31-1.03-.56-.22-.35.11-.67.35-1.18.39-.8-.64-1.17-1.18-1.38-1.53-.58-1.39,2.14-2.97.77,1.11-.72,2.29-1.97,3.69-2.18Z"/>
            <path class="cls-1" d="M164.94,200.7c-.6,2.18.29,6.19-.85,7.41,3.42.01-.55-2.3,2.48-3.21,2.18-.66,1.48,2.5,3.62.81l-5.25-5ZM165.43,204.87c.01-.87-.21-1.46.07-2.41l1.35,1.69c-.47.43-.88.54-1.42.73Z"/>
            <path class="cls-1" d="M185.31,195.76c-.18.37-.68,1.05-1.03.67.23-.63.67-.55,1.03-.67Z"/>
            <path class="cls-1" d="M185.31,195.76c.08-.17.38-.54.12-.81-.51-.52-.94-.94-1.76-1.31-.06,1.09.2,1.89.61,2.79-.25.67-.39,1.54.22,2.14-1.87,2.09-.92-5.02-1.81-6.59l6.46,3.86c-1.71,2.06-1.55-.86-3.85-.09Z"/>
            <path class="cls-1" d="M83.37,206.13c-.37-.19-.69-.43-.88-.6s.05-1.03.31-.9c.63.33.8,1.08,1.33,1.17.62.11,1.44.05,1.6-.71.3-1.36-2.84-2.43-1.51-4.14.56-.73,1.45-1.02,2.41-.55.66.32,1.6.53,1.33,1.52-.56.16-1.83-1.96-2.91-.86-1.13,1.14,2.91,1.95,1.51,4.37-.65,1.11-1.83,1.39-3.2.69Z"/>
            <path class="cls-1" d="M143.69,213.2c-.7.13-1.17.28-1.69.22.52-2.29-.38-4.06-.61-6.03-.06-.5,1.29-.64,1.32-.24.19,2.17.28,4.16.98,6.05Z"/>
            <path class="cls-2" d="M78.52,199.63c-.18,1.33-1.03,2.25-1.96,2.46-.74.17-2.62-.46-2.51-1.29.21-1.6,1.63-2.75,2.21-4.39,1.54.21,2.49,1.49,2.26,3.22Z"/>
            <path class="cls-2" d="M137.87,208.61c1.43.89,1.12,3.84.16,4.39-.55.32-2.22.73-2.39,0-.34-1.5-.35-2.99-.15-4.51.14-.66,1.84-.22,2.38.12Z"/>
            <path class="cls-2" d="M114.58,211.07c-.54,1.29-1.53,1.96-2.45,1.75-1.25-.29-1.78-1.31-1.73-2.58.04-.95.2-1.98.87-2.44.77-.54,2.09-.53,2.77.23.74.81.98,1.98.53,3.05Z"/>
            <path class="cls-2" d="M104.22,208.27c-.13-.51.16-1.45.45-1.86.36-.52,1.39-.07,1.66.38.29.5.1,1.3-.38,1.71-.39.33-1.56.47-1.73-.23Z"/>
            <path class="cls-2" d="M98.22,204.81c.4-.41,1.32.12,1.59.47.38.49.2,1.33-.24,1.65-.49.35-1.29.15-1.63-.15-.44-.39-.29-1.37.28-1.96Z"/>
            <path class="cls-2" d="M166.86,204.15c-.48.42-.88.54-1.43.72.02-.87-.2-1.46.08-2.42l1.35,1.69Z"/>
          </g>
        </g>
      </g>
    </g>
  </g>
</svg>