<svg xmlns="http://www.w3.org/2000/svg" xmlns:xlink="http://www.w3.org/1999/xlink" width="1080" zoomAndPan="magnify" viewBox="0 0 810 809.999993" height="1080" preserveAspectRatio="xMidYMid meet" version="1.0"><rect x="-81" width="972" fill="#ffffff" y="-80.999999" height="971.999992" fill-opacity="1"/><rect x="-81" width="972" fill="#ffffff" y="-80.999999" height="971.999992" fill-opacity="1"/><path fill="#4c9d55" d="M 555.335938 482.335938 C 559.296875 485.265625 564.34375 485.835938 565.023438 485.902344 C 573.097656 486.734375 577.898438 482.148438 586.90625 477.265625 C 586.90625 477.265625 600.320312 469.765625 616.613281 467.117188 C 627.558594 465.339844 629.292969 467.417969 640.753906 465.089844 C 651.015625 463.003906 657.777344 461.628906 663.96875 455.960938 C 675.605469 445.296875 675.964844 427.910156 676.039062 424.511719 C 676.410156 406.679688 667.269531 394.339844 663.96875 390.019531 C 651.484375 373.679688 634.550781 370.136719 627.757812 368.714844 C 621.261719 367.355469 600.609375 363.394531 580.40625 376.832031 C 560.964844 389.757812 554.714844 410.296875 551.621094 420.453125 C 545.488281 440.609375 542.28125 472.675781 555.335938 482.335938 Z M 555.335938 482.335938 " fill-opacity="1" fill-rule="nonzero"/><path fill="#4c9d55" d="M 541.410156 528.546875 C 544.429688 525.894531 554.296875 517.507812 570.191406 509.976562 C 584.824219 503.042969 600.617188 495.558594 621.257812 496.976562 C 645.839844 498.667969 662.496094 511.96875 670.464844 518.332031 C 681.652344 527.265625 701.128906 542.816406 702.960938 567.542969 C 703.167969 570.320312 704.925781 594.019531 690.894531 603.75 C 676.234375 613.914062 662.402344 596.324219 631.46875 596.324219 C 589.785156 596.324219 574.1875 628.273438 545.121094 617.679688 C 530.617188 612.390625 523.171875 600.300781 521.910156 598.179688 C 511.398438 580.527344 517.117188 561.605469 518.199219 558.257812 C 522.40625 545.238281 530.867188 537.804688 541.410156 528.546875 Z M 541.410156 528.546875 " fill-opacity="1" fill-rule="nonzero"/><path fill="#244f34" d="M 610.113281 731.675781 C 609.261719 731.675781 608.539062 731.023438 608.46875 730.15625 C 607.113281 713.550781 606.488281 696.632812 606.605469 679.875 C 606.9375 634.238281 612.738281 600.488281 616.578125 578.160156 C 617.390625 573.433594 618.117188 569.195312 618.695312 565.433594 C 626.074219 517.359375 620.917969 464.195312 603.382812 407.414062 C 603.109375 406.542969 603.601562 405.617188 604.472656 405.347656 C 605.34375 405.078125 606.265625 405.570312 606.539062 406.441406 C 624.226562 463.699219 629.414062 517.363281 621.960938 565.933594 C 621.382812 569.714844 620.648438 573.972656 619.835938 578.71875 C 616.015625 600.945312 610.242188 634.53125 609.910156 679.898438 C 609.792969 696.558594 610.414062 713.378906 611.761719 729.890625 C 611.835938 730.796875 611.15625 731.597656 610.113281 731.675781 Z M 610.113281 731.675781 " fill-opacity="1" fill-rule="nonzero"/><path fill="#244f34" d="M 615.703125 446.316406 C 615.257812 446.316406 614.820312 446.136719 614.496094 445.789062 C 613.871094 445.125 613.90625 444.078125 614.570312 443.457031 C 616.160156 441.96875 617.558594 440.3125 618.730469 438.523438 C 623.21875 431.660156 623.609375 424.226562 623.144531 419.199219 C 623.0625 418.289062 623.730469 417.484375 624.640625 417.398438 C 625.53125 417.308594 626.355469 417.984375 626.4375 418.894531 C 626.949219 424.445312 626.507812 432.671875 621.492188 440.335938 C 620.179688 442.34375 618.609375 444.203125 616.832031 445.871094 C 616.511719 446.167969 616.105469 446.316406 615.703125 446.316406 Z M 615.703125 446.316406 " fill-opacity="1" fill-rule="nonzero"/><path fill="#244f34" d="M 619.351562 575.84375 C 618.90625 575.84375 618.460938 575.660156 618.136719 575.304688 C 617.515625 574.632812 617.5625 573.589844 618.234375 572.972656 C 623.066406 568.542969 627.625 563.753906 631.785156 558.742188 C 638.765625 550.328125 644.8125 541.074219 649.757812 531.238281 C 650.167969 530.417969 651.164062 530.09375 651.976562 530.5 C 652.792969 530.910156 653.121094 531.90625 652.710938 532.722656 C 647.652344 542.78125 641.46875 552.25 634.328125 560.855469 C 630.074219 565.980469 625.410156 570.878906 620.46875 575.410156 C 620.152344 575.699219 619.753906 575.84375 619.351562 575.84375 Z M 619.351562 575.84375 " fill-opacity="1" fill-rule="nonzero"/><path fill="#244f34" d="M 639.800781 552.429688 C 639.035156 552.429688 638.34375 551.890625 638.183594 551.105469 C 637.132812 545.902344 636.636719 540.570312 636.707031 535.261719 C 636.757812 531.410156 637.117188 527.523438 637.761719 523.710938 C 637.914062 522.8125 638.796875 522.234375 639.667969 522.359375 C 640.570312 522.511719 641.171875 523.367188 641.023438 524.269531 C 640.402344 527.910156 640.0625 531.625 640.011719 535.304688 C 639.945312 540.378906 640.417969 545.476562 641.425781 550.449219 C 641.605469 551.34375 641.027344 552.21875 640.128906 552.398438 C 640.019531 552.421875 639.910156 552.429688 639.800781 552.429688 Z M 639.800781 552.429688 " fill-opacity="1" fill-rule="nonzero"/><path fill="#244f34" d="M 620.386719 557.871094 C 620.089844 557.871094 619.792969 557.789062 619.523438 557.625 C 613.679688 554.046875 608.335938 549.742188 603.628906 544.828125 C 596.394531 537.273438 590.761719 528.421875 586.894531 518.53125 C 586.5625 517.683594 586.980469 516.722656 587.828125 516.390625 C 588.691406 516.0625 589.640625 516.480469 589.972656 517.328125 C 593.679688 526.816406 599.082031 535.296875 606.019531 542.542969 C 610.523438 547.25 615.652344 551.375 621.246094 554.808594 C 622.027344 555.285156 622.269531 556.300781 621.796875 557.082031 C 621.484375 557.589844 620.941406 557.871094 620.386719 557.871094 Z M 620.386719 557.871094 " fill-opacity="1" fill-rule="nonzero"/><path fill="#226439" d="M 218.523438 346.15625 C 208.734375 293.652344 186.785156 221.558594 129.601562 223.054688 C 74.398438 224.5 39.273438 312.441406 28.375 364.648438 C 14.425781 431.492188 -5.023438 576.191406 75.480469 567.675781 C 97.425781 565.355469 117 553.660156 139.023438 564.339844 C 153.878906 571.539062 164.804688 593.554688 195.082031 588.453125 C 250.3125 579.148438 224.136719 376.246094 218.523438 346.15625 Z M 218.523438 346.15625 " fill-opacity="1" fill-rule="nonzero"/><path fill="#1a4326" d="M 120.246094 529.699219 C 119.863281 529.699219 119.480469 529.554688 119.191406 529.277344 C 112.824219 522.984375 106.546875 516.394531 100.535156 509.695312 C 86.484375 494.03125 73.480469 477.269531 61.890625 459.878906 C 61.46875 459.246094 61.679688 458.417969 62.355469 458.03125 C 63.03125 457.640625 63.921875 457.832031 64.34375 458.464844 C 75.871094 475.75 88.789062 492.410156 102.753906 507.976562 C 108.730469 514.636719 114.96875 521.183594 121.300781 527.433594 C 121.847656 527.976562 121.816406 528.824219 121.238281 529.332031 C 120.957031 529.578125 120.601562 529.699219 120.246094 529.699219 Z M 120.246094 529.699219 " fill-opacity="1" fill-rule="nonzero"/><path fill="#1a4326" d="M 118.019531 488.199219 C 117.65625 488.199219 117.300781 488.074219 117.015625 487.824219 C 116.441406 487.308594 116.425781 486.460938 116.976562 485.925781 C 126.601562 476.613281 135.804688 466.730469 144.328125 456.554688 C 158.570312 439.554688 171.324219 421.253906 182.242188 402.164062 C 182.613281 401.511719 183.496094 401.257812 184.195312 401.609375 C 184.898438 401.953125 185.167969 402.765625 184.792969 403.421875 C 173.796875 422.648438 160.953125 441.082031 146.609375 458.203125 C 138.027344 468.453125 128.757812 478.40625 119.058594 487.785156 C 118.777344 488.058594 118.398438 488.199219 118.019531 488.199219 Z M 118.019531 488.199219 " fill-opacity="1" fill-rule="nonzero"/><path fill="#1a4326" d="M 117.417969 724.949219 C 116.636719 724.949219 115.976562 723.703125 115.953125 722.972656 C 114.25 664.765625 115.59375 629.289062 116.480469 606.035156 C 116.804688 597.625 117.058594 590.808594 117.058594 585.515625 C 117.089844 585.144531 119.527344 560.183594 119.121094 536.621094 C 118.90625 524.246094 118.160156 515.371094 117.617188 508.921875 C 117.617188 508.921875 117.359375 505.835938 117.359375 505.835938 C 115.75 485.609375 116.816406 474.582031 118.289062 459.328125 C 119.417969 447.667969 120.820312 433.148438 121.390625 409.925781 C 121.636719 399.984375 121.714844 390.148438 121.789062 380.644531 C 121.925781 362.980469 122.058594 346.296875 123.214844 330.75 C 123.898438 321.550781 125.039062 311.972656 126.703125 301.472656 C 127.707031 295.140625 128.84375 288.796875 130.085938 282.632812 C 130.234375 281.898438 130.996094 281.425781 131.769531 281.558594 C 132.554688 281.695312 133.070312 282.394531 132.925781 283.125 C 131.691406 289.257812 130.558594 295.5625 129.5625 301.863281 C 127.910156 312.296875 126.777344 321.804688 126.097656 330.933594 C 124.949219 346.394531 124.816406 363.039062 124.679688 380.664062 C 124.601562 390.179688 124.527344 400.019531 124.28125 409.984375 C 123.707031 433.296875 122.296875 447.859375 121.164062 459.5625 C 119.703125 474.683594 118.648438 485.609375 120.242188 505.617188 C 120.242188 505.617188 120.492188 508.667969 120.492188 508.667969 C 121.042969 515.152344 121.796875 524.035156 122.011719 536.496094 C 122.417969 560.207031 119.96875 585.222656 119.941406 585.472656 C 119.945312 590.691406 119.691406 597.355469 119.367188 605.796875 C 118.484375 629.015625 117.140625 664.777344 118.84375 722.898438 C 118.867188 723.640625 118.214844 722.265625 117.417969 724.949219 Z M 117.417969 724.949219 " fill-opacity="1" fill-rule="nonzero"/><path fill="#1a4326" d="M 121.902344 431.820312 C 121.398438 431.820312 120.90625 431.570312 120.640625 431.132812 C 114.476562 420.867188 108.460938 410.332031 102.765625 399.816406 C 93.101562 381.988281 84.011719 363.59375 75.75 345.140625 C 75.445312 344.457031 75.789062 343.667969 76.527344 343.382812 C 77.269531 343.113281 78.109375 343.421875 78.417969 344.109375 C 86.65625 362.5 95.714844 380.839844 105.34375 398.613281 C 111.023438 409.089844 117.019531 419.59375 123.164062 429.824219 C 123.554688 430.46875 123.300781 431.289062 122.605469 431.648438 C 122.382812 431.765625 122.144531 431.820312 121.902344 431.820312 Z M 121.902344 431.820312 " fill-opacity="1" fill-rule="nonzero"/><path fill="#1a4326" d="M 124.28125 341.828125 C 123.949219 341.828125 123.617188 341.726562 123.34375 341.507812 C 122.738281 341.03125 122.664062 340.183594 123.179688 339.617188 C 130.375 331.757812 137.144531 323.40625 143.304688 314.796875 C 149.617188 305.976562 155.417969 296.6875 160.554688 287.199219 C 160.910156 286.53125 161.78125 286.261719 162.492188 286.601562 C 163.207031 286.933594 163.492188 287.742188 163.136719 288.40625 C 157.949219 297.992188 152.085938 307.371094 145.710938 316.285156 C 139.488281 324.980469 132.648438 333.414062 125.382812 341.359375 C 125.097656 341.667969 124.691406 341.828125 124.28125 341.828125 Z M 124.28125 341.828125 " fill-opacity="1" fill-rule="nonzero"/><path fill="#226439" d="M 687.527344 223.746094 C 692.9375 218.195312 698.6875 215.089844 702.753906 205.300781 C 707.625 193.582031 703.710938 187.621094 708.128906 176.003906 C 712.265625 165.121094 722.339844 152.882812 732.308594 154.300781 C 741.851562 155.65625 747.621094 169 751.117188 177.085938 C 758.65625 194.519531 754.207031 201.964844 760.96875 215.066406 C 768.058594 228.804688 776.238281 227.007812 785.152344 237.851562 C 798.582031 254.199219 797.625 279.707031 796.792969 301.875 C 794.867188 353.21875 776.027344 363.777344 783.359375 397.363281 C 786.847656 413.34375 790.214844 412.738281 795.003906 436.425781 C 798.253906 452.519531 802.382812 472.9375 798.585938 495.023438 C 793.640625 523.789062 780.871094 522.683594 768.132812 561.210938 C 760.140625 585.394531 764.285156 588.507812 755.59375 610.042969 C 748.324219 628.058594 738.109375 653.371094 720.667969 655.617188 C 701.753906 658.050781 686.5 631.800781 683.945312 627.402344 C 672.03125 606.898438 672.226562 584.101562 672.300781 575.320312 C 672.507812 551.351562 679.515625 546.777344 677.675781 527.574219 C 675.949219 509.558594 669.132812 506.808594 661.554688 486.339844 C 652.289062 461.316406 644.640625 417.230469 659.765625 385.425781 C 667.746094 368.640625 676.65625 366.671875 678.570312 350.703125 C 680.570312 334.070312 671.535156 330.035156 667.824219 308.386719 C 663.179688 281.304688 669.066406 242.699219 687.527344 223.746094 Z M 687.527344 223.746094 " fill-opacity="1" fill-rule="nonzero"/><path fill="#1a4326" d="M 717.082031 729.796875 C 716.332031 729.796875 715.691406 729.230469 715.613281 728.464844 C 711.558594 687.898438 710.953125 647.65625 713.816406 608.847656 C 715.769531 582.429688 718.648438 565.300781 721.1875 550.1875 C 724.472656 530.652344 727.3125 513.785156 727.25 483.089844 C 727.199219 460.492188 725.605469 447.367188 724.195312 435.789062 C 722.464844 421.550781 720.96875 409.253906 722.773438 384.234375 C 723.828125 369.601562 725.421875 358.78125 727.109375 347.324219 C 729.113281 333.6875 731.1875 319.59375 732.625 297.4375 C 734.027344 275.816406 734.328125 253.960938 733.515625 232.484375 C 733.488281 231.667969 734.121094 230.980469 734.941406 230.949219 C 735.816406 230.996094 736.445312 231.558594 736.476562 232.371094 C 737.289062 253.953125 736.988281 275.90625 735.578125 297.628906 C 734.132812 319.902344 732.046875 334.0625 730.035156 347.757812 C 728.359375 359.15625 726.773438 369.925781 725.726562 384.449219 C 723.941406 409.179688 725.417969 421.34375 727.132812 435.433594 C 728.550781 447.09375 730.160156 460.3125 730.207031 483.082031 C 730.273438 514.027344 727.417969 531.011719 724.109375 550.679688 C 721.574219 565.730469 718.707031 582.78125 716.769531 609.070312 C 713.917969 647.703125 714.519531 687.773438 718.554688 728.171875 C 718.640625 728.984375 718.042969 729.707031 717.082031 729.796875 Z M 717.082031 729.796875 " fill-opacity="1" fill-rule="nonzero"/><path fill="#1a4326" d="M 729.136719 344.492188 C 728.535156 344.492188 727.972656 344.125 727.75 343.535156 C 727.75 343.535156 706.40625 286.523438 706.40625 286.523438 C 706.117188 285.757812 706.507812 284.90625 707.269531 284.621094 C 708.046875 284.324219 708.890625 284.722656 709.175781 285.484375 C 709.175781 285.484375 730.519531 342.492188 730.519531 342.492188 C 730.808594 343.261719 730.417969 344.113281 729.65625 344.398438 C 729.480469 344.464844 729.308594 344.492188 729.136719 344.492188 Z M 729.136719 344.492188 " fill-opacity="1" fill-rule="nonzero"/><path fill="#1a4326" d="M 725.683594 433.882812 C 725.390625 433.882812 725.09375 433.796875 724.835938 433.613281 C 724.164062 433.148438 724.003906 432.222656 724.472656 431.554688 C 724.472656 431.554688 758.976562 382.40625 758.976562 382.40625 C 759.445312 381.738281 760.375 381.578125 761.035156 382.046875 C 761.707031 382.515625 761.867188 383.4375 761.398438 384.105469 C 761.398438 384.105469 726.894531 433.253906 726.894531 433.253906 C 726.605469 433.664062 726.152344 433.882812 725.683594 433.882812 Z M 725.683594 433.882812 " fill-opacity="1" fill-rule="nonzero"/><path fill="#1a4326" d="M 720.21875 570.695312 C 719.871094 570.695312 719.527344 570.574219 719.246094 570.332031 C 718.628906 569.792969 718.5625 568.859375 719.101562 568.246094 C 719.101562 568.246094 757.054688 524.703125 757.054688 524.703125 C 757.589844 524.082031 758.527344 524.019531 759.140625 524.558594 C 759.761719 525.097656 759.824219 526.03125 759.285156 526.644531 C 759.285156 526.644531 721.332031 570.1875 721.332031 570.1875 C 721.042969 570.523438 720.628906 570.695312 720.21875 570.695312 Z M 720.21875 570.695312 " fill-opacity="1" fill-rule="nonzero"/><path fill="#1a4326" d="M 727.90625 510.082031 C 727.378906 510.082031 726.867188 509.796875 726.597656 509.296875 C 726.597656 509.296875 694.394531 449.0625 694.394531 449.0625 C 694.011719 448.339844 694.28125 447.445312 695.003906 447.058594 C 695.710938 446.675781 696.617188 446.941406 697.007812 447.667969 C 697.007812 447.667969 729.210938 507.90625 729.210938 507.90625 C 729.59375 508.625 729.324219 509.519531 728.601562 509.90625 C 728.382812 510.027344 728.140625 510.082031 727.90625 510.082031 Z M 727.90625 510.082031 " fill-opacity="1" fill-rule="nonzero"/><path fill="#fdc785" d="M 200.03125 310.839844 C 196.53125 315.660156 192.582031 322.21875 189.589844 330.515625 C 188.199219 334.363281 187.230469 337.996094 186.546875 341.289062 C 189.199219 343.359375 191.851562 345.429688 194.503906 347.5 C 196.1875 344.039062 198.289062 340.253906 200.917969 336.316406 C 205.054688 330.113281 209.414062 325.175781 213.292969 321.347656 C 208.871094 317.847656 204.453125 314.335938 200.03125 310.839844 Z M 200.03125 310.839844 " fill-opacity="1" fill-rule="nonzero"/><path fill="#4a90e2" d="M 306.882812 195.585938 C 305.996094 196.425781 305.113281 197.347656 304.273438 198.320312 C 296.449219 207.339844 295.339844 218.523438 294.457031 224.359375 C 293 234.21875 292.382812 243.371094 292.292969 251.859375 C 283.894531 253.9375 273.902344 257.605469 264.132812 264.414062 C 259.359375 267.730469 255.113281 271.488281 245.875 281.566406 C 237.253906 290.984375 225.847656 304.238281 213.292969 321.347656 C 211.570312 320.949219 208.253906 319.9375 205.074219 317.242188 C 202.289062 314.941406 200.78125 312.382812 200.03125 310.835938 C 207.28125 294.214844 219.660156 270.957031 240.570312 247.484375 C 264.53125 220.648438 289.773438 204.648438 306.882812 195.585938 Z M 306.882812 195.585938 " fill-opacity="1" fill-rule="nonzero"/><path fill="#fdc785" d="M 195.265625 331.042969 C 201.304688 331.183594 204.152344 339.84375 204.273438 340.226562 C 204.835938 342.011719 206.292969 347.863281 202.527344 352.636719 C 199.417969 356.578125 193.378906 358.984375 189.035156 356.742188 C 183.476562 353.871094 183.773438 344.988281 185.765625 339.855469 C 186.082031 339.039062 189.363281 330.902344 195.265625 331.042969 Z M 195.265625 331.042969 " fill-opacity="1" fill-rule="nonzero"/><path fill="#4a90e2" d="M 408.632812 342.171875 C 396.828125 346.417969 378.714844 351.324219 356.214844 351.546875 C 331.28125 351.8125 311.429688 346.148438 299.136719 341.597656 C 297.945312 329.441406 296.09375 310.429688 293.972656 286.734375 C 293.085938 276.652344 292.117188 265.078125 292.292969 251.859375 C 292.382812 243.371094 293 234.21875 294.457031 224.359375 C 295.339844 218.523438 296.445312 207.339844 304.273438 198.320312 C 305.113281 197.347656 305.996094 196.421875 306.878906 195.585938 C 310.109375 192.578125 313.15625 190.582031 314.039062 190.050781 C 315.144531 189.390625 316.207031 188.769531 317.269531 188.242188 C 322.042969 185.765625 326.371094 184.609375 329.378906 184.035156 C 329.378906 184.035156 344.277344 180.238281 362.183594 184.570312 C 365.277344 185.277344 368.460938 186.296875 371.6875 187.578125 C 374.472656 188.726562 377.167969 190.316406 379.6875 192.351562 C 397.945312 206.808594 410.101562 243.320312 411.253906 291.417969 C 411.605469 307.199219 410.796875 324.269531 408.632812 342.171875 Z M 408.632812 342.171875 " fill-opacity="1" fill-rule="nonzero"/><path fill="#272122" d="M 418.117188 415.28125 C 415.261719 390.484375 408.632812 342.171875 408.632812 342.171875 C 410.796875 324.269531 411.605469 307.203125 411.253906 291.421875 C 398.335938 296.703125 390.609375 294.457031 387.171875 292.976562 C 363.179688 282.648438 368.371094 232.019531 368.769531 228.507812 C 370.585938 212.375 375.863281 199.890625 379.6875 192.351562 C 377.167969 190.316406 374.472656 188.726562 371.6875 187.578125 C 368.460938 186.296875 365.277344 185.277344 362.183594 184.570312 C 356.679688 198.128906 353.988281 209.71875 352.542969 218.195312 C 349.351562 236.96875 350.65625 250.164062 342.597656 254.28125 C 342.015625 254.578125 342.335938 256.578125 327.347656 255.738281 C 321.820312 255.429688 319.082031 255.296875 316.824219 253.925781 C 315.191406 252.953125 309.222656 248.621094 312.40625 217.457031 C 313.113281 210.117188 314.484375 200.132812 317.269531 188.242188 C 316.207031 188.773438 315.144531 189.390625 314.039062 190.054688 C 312.890625 190.761719 308.207031 193.769531 304.273438 198.320312 C 296.445312 207.339844 295.339844 218.523438 294.457031 224.359375 C 290.789062 249.601562 292.511719 270.199219 293.972656 286.734375 C 296.09375 310.429688 297.945312 329.441406 299.136719 341.597656 C 294.714844 372.402344 290.632812 403.847656 286.972656 435.914062 C 276.804688 524.917969 270.734375 610.308594 267.816406 691.574219 C 273.109375 693.632812 281.386719 696.121094 291.757812 696.363281 C 303.835938 696.648438 313.390625 693.761719 319.019531 691.574219 C 322.070312 668.105469 343.605469 491.671875 350.59375 427.871094 C 358.554688 488.164062 383.367188 664.546875 387.359375 691.761719 C 393.375 693.570312 402.210938 695.488281 412.960938 695.257812 C 422.03125 695.066406 429.582031 693.410156 435.0625 691.761719 C 434.382812 604.695312 429.300781 512.265625 418.117188 415.28125 Z M 418.117188 415.28125 " fill-opacity="1" fill-rule="nonzero"/><path fill="#fdc785" d="M 303.167969 727.878906 C 301.621094 729.914062 299.367188 730.664062 298.394531 731.019531 C 296.402344 731.636719 294.589844 731.683594 293.484375 731.59375 C 292.910156 731.546875 292.511719 731.460938 292.425781 731.460938 C 287.121094 730.621094 260.460938 732.078125 260.066406 732.078125 C 258.914062 732.167969 255.734375 732.34375 253.257812 731.371094 C 251.488281 730.664062 248.617188 728.851562 248.835938 727.128906 C 248.96875 725.890625 250.648438 725.140625 254.140625 723.8125 C 259.359375 721.867188 261.921875 720.894531 264.839844 720.1875 C 264.839844 720.1875 278.457031 716.738281 280.976562 714.441406 C 281.0625 714.351562 281.902344 713.511719 281.902344 713.511719 C 282.789062 712.496094 283.40625 711.433594 283.894531 710.332031 C 285.21875 707.457031 285.394531 704.449219 285.574219 701.710938 C 285.75 698.792969 285.707031 694.328125 284.203125 688.976562 C 284.203125 688.976562 303.253906 688.976562 303.253906 688.976562 C 301.664062 694.679688 301.355469 699.5 301.398438 702.859375 C 301.398438 705.777344 301.398438 708.207031 302.015625 710.949219 C 302.152344 711.566406 302.328125 712.1875 302.503906 712.804688 C 303.386719 715.855469 304.140625 716.386719 304.582031 719.171875 C 304.847656 721.25 305.421875 724.917969 303.167969 727.878906 Z M 303.167969 727.878906 " fill-opacity="1" fill-rule="nonzero"/><path fill="#4a90e2" d="M 303.167969 727.878906 C 301.621094 729.914062 299.367188 730.664062 298.394531 731.019531 C 296.402344 731.636719 294.589844 731.683594 293.484375 731.59375 C 292.910156 731.550781 292.511719 731.460938 292.425781 731.460938 C 287.121094 730.621094 260.460938 732.078125 260.066406 732.078125 C 258.914062 732.167969 255.734375 732.34375 253.257812 731.371094 C 251.488281 730.664062 248.617188 728.851562 248.835938 727.128906 C 248.96875 725.890625 250.648438 725.140625 254.140625 723.8125 C 259.359375 721.867188 261.921875 720.894531 264.839844 720.1875 C 264.839844 720.1875 278.457031 716.738281 280.976562 714.441406 C 281.0625 714.351562 281.902344 713.511719 281.902344 713.511719 C 282.789062 712.496094 283.40625 711.433594 283.894531 710.332031 C 286.542969 711.082031 289.773438 711.699219 293.484375 711.789062 C 296.667969 711.878906 299.542969 711.523438 302.015625 710.949219 C 302.152344 711.570312 302.328125 712.1875 302.503906 712.804688 C 303.386719 715.855469 304.140625 716.386719 304.582031 719.171875 C 304.847656 721.25 305.421875 724.917969 303.167969 727.878906 Z M 303.167969 727.878906 " fill-opacity="1" fill-rule="nonzero"/><path fill="#fdc785" d="M 422.527344 727.878906 C 420.980469 729.914062 418.722656 730.664062 417.75 731.019531 C 415.761719 731.636719 413.949219 731.683594 412.84375 731.59375 C 412.269531 731.546875 411.871094 731.460938 411.785156 731.460938 C 406.480469 730.621094 379.820312 732.078125 379.425781 732.078125 C 378.273438 732.167969 375.09375 732.34375 372.617188 731.371094 C 370.847656 730.664062 367.976562 728.851562 368.195312 727.128906 C 368.328125 725.890625 370.007812 725.140625 373.5 723.8125 C 378.714844 721.867188 381.28125 720.894531 384.199219 720.1875 C 384.199219 720.1875 397.8125 716.738281 400.332031 714.441406 C 400.421875 714.351562 401.261719 713.511719 401.261719 713.511719 C 402.148438 712.496094 402.765625 711.433594 403.253906 710.332031 C 404.578125 707.457031 404.753906 704.449219 404.933594 701.710938 C 405.109375 698.792969 405.0625 694.328125 403.5625 688.976562 C 403.5625 688.976562 422.613281 688.976562 422.613281 688.976562 C 421.023438 694.679688 420.714844 699.5 420.757812 702.859375 C 420.757812 705.777344 420.757812 708.207031 421.375 710.949219 C 421.507812 711.566406 421.6875 712.1875 421.863281 712.804688 C 422.746094 715.855469 423.5 716.386719 423.941406 719.171875 C 424.207031 721.25 424.78125 724.917969 422.527344 727.878906 Z M 422.527344 727.878906 " fill-opacity="1" fill-rule="nonzero"/><path fill="#4a90e2" d="M 422.527344 727.878906 C 420.980469 729.914062 418.722656 730.664062 417.75 731.019531 C 415.761719 731.636719 413.949219 731.683594 412.84375 731.59375 C 412.269531 731.550781 411.871094 731.460938 411.785156 731.460938 C 406.480469 730.621094 379.820312 732.078125 379.425781 732.078125 C 378.273438 732.167969 375.09375 732.34375 372.617188 731.371094 C 370.847656 730.664062 367.976562 728.851562 368.195312 727.128906 C 368.328125 725.890625 370.007812 725.140625 373.5 723.8125 C 378.714844 721.867188 381.28125 720.894531 384.199219 720.1875 C 384.199219 720.1875 397.8125 716.738281 400.332031 714.441406 C 400.421875 714.351562 401.261719 713.511719 401.261719 713.511719 C 402.148438 712.496094 402.765625 711.433594 403.253906 710.332031 C 405.902344 711.082031 409.128906 711.699219 412.84375 711.789062 C 416.027344 711.878906 418.902344 711.523438 421.375 710.949219 C 421.507812 711.570312 421.6875 712.1875 421.863281 712.804688 C 422.746094 715.855469 423.5 716.386719 423.941406 719.171875 C 424.207031 721.25 424.78125 724.917969 422.527344 727.878906 Z M 422.527344 727.878906 " fill-opacity="1" fill-rule="nonzero"/><path fill="#c6e6b6" d="M 140.179688 235.414062 C 137.347656 237.5 153.734375 264.8125 164.769531 281.28125 C 175.210938 296.855469 184.984375 308.875 191.828125 316.8125 C 194.183594 315.042969 196.535156 313.269531 198.890625 311.496094 C 194.4375 302.097656 187.332031 288.636719 176.640625 273.785156 C 162.070312 253.546875 142.820312 233.472656 140.179688 235.414062 Z M 140.179688 235.414062 " fill-opacity="1" fill-rule="nonzero"/><path fill="#d0021b" d="M 241.691406 380.089844 C 240.351562 380.089844 239.027344 379.480469 238.15625 378.328125 C 238.15625 378.328125 191.828125 316.8125 191.828125 316.8125 C 194.183594 315.042969 196.535156 313.269531 198.890625 311.496094 C 198.890625 311.496094 245.21875 373.007812 245.21875 373.007812 C 246.6875 374.960938 246.300781 377.730469 244.347656 379.199219 C 243.550781 379.800781 242.617188 380.089844 241.691406 380.089844 Z M 241.691406 380.089844 " fill-opacity="1" fill-rule="nonzero"/><path fill="#c6e6b6" d="M 234.707031 216.164062 C 231.292969 215.324219 220.800781 245.398438 215.21875 264.417969 C 209.9375 282.410156 206.960938 297.613281 205.246094 307.953125 C 208.117188 308.625 210.984375 309.300781 213.851562 309.972656 C 218.222656 300.539062 224.011719 286.460938 228.574219 268.734375 C 234.792969 244.585938 237.890625 216.949219 234.707031 216.164062 Z M 234.707031 216.164062 " fill-opacity="1" fill-rule="nonzero"/><path fill="#d0021b" d="M 188.566406 386.769531 C 187.707031 385.738281 187.328125 384.332031 187.65625 382.925781 C 187.65625 382.925781 205.246094 307.953125 205.246094 307.953125 C 208.113281 308.625 210.984375 309.300781 213.851562 309.972656 C 213.851562 309.972656 196.261719 384.945312 196.261719 384.945312 C 195.703125 387.324219 193.324219 388.800781 190.949219 388.238281 C 189.976562 388.011719 189.15625 387.480469 188.566406 386.769531 Z M 188.566406 386.769531 " fill-opacity="1" fill-rule="nonzero"/><path fill="#fdc785" d="M 252.527344 321.894531 C 249.636719 322.496094 245.425781 323.46875 240.425781 324.988281 C 232.519531 327.394531 227.132812 329.074219 221.253906 332.957031 C 216.398438 336.164062 211.488281 339.308594 209.652344 345.390625 C 209.273438 346.636719 206.949219 354.324219 211.308594 358.652344 C 213.863281 361.1875 217.960938 361.824219 221.253906 361.136719 C 228.839844 359.554688 230.003906 352.332031 238.386719 346.769531 C 241.664062 344.59375 246.816406 342.195312 254.738281 341.789062 C 254 335.15625 253.261719 328.527344 252.527344 321.894531 Z M 252.527344 321.894531 " fill-opacity="1" fill-rule="nonzero"/><path fill="#4a90e2" d="M 380.175781 204.746094 C 377.230469 217.753906 365.695312 261.140625 324.363281 292.609375 C 295.992188 314.207031 266.941406 320.023438 252.527344 321.894531 C 252.191406 324.351562 251.988281 327.480469 252.308594 331.066406 C 252.699219 335.492188 253.746094 339.136719 254.738281 341.789062 C 270.101562 341.269531 300.820312 338.1875 333.757812 319.683594 C 366.914062 301.058594 385.578125 276.207031 393.988281 263.320312 C 389.382812 243.796875 384.777344 224.273438 380.175781 204.746094 Z M 380.175781 204.746094 " fill-opacity="1" fill-rule="nonzero"/><path fill="#fdc785" d="M 334.554688 98.179688 C 325.796875 96.757812 316.378906 101.09375 311.027344 107.714844 C 296.09375 126.191406 310.015625 165.984375 329.609375 175.503906 C 329.53125 178.34375 329.457031 181.195312 329.378906 184.035156 C 331.28125 188.671875 335.441406 191.941406 340.265625 192.535156 C 345.914062 193.230469 351.550781 190.125 354.199219 184.769531 C 354.132812 180.226562 354.066406 175.679688 353.996094 171.136719 C 355.925781 169.507812 357.628906 167.71875 358.953125 165.902344 C 374.492188 144.636719 357.402344 101.890625 334.554688 98.179688 Z M 334.554688 98.179688 " fill-opacity="1" fill-rule="nonzero"/><path fill="#1a3144" d="M 364.976562 123.585938 C 362.703125 117.792969 358.476562 107.449219 347.707031 100.070312 C 346.6875 99.371094 330.035156 88.332031 312.023438 94.316406 C 311.925781 94.347656 311.785156 94.394531 311.609375 94.453125 C 309.765625 95.082031 297.246094 99.59375 295.59375 108.285156 C 294.953125 111.667969 295.621094 117.445312 299.359375 119.96875 C 308.792969 126.335938 328.070312 105.5 337.84375 112.074219 C 342.972656 115.527344 342.59375 124.527344 347.214844 124.902344 C 350.335938 125.15625 352.75 121.113281 355.984375 122.351562 C 357.550781 122.953125 358.359375 124.378906 358.5625 124.738281 C 359.984375 127.242188 359.003906 130.054688 358.5625 131.316406 C 357.316406 134.894531 355.550781 134.800781 354.039062 137.894531 C 352.0625 141.945312 354.3125 143.695312 352.832031 147.933594 C 351.488281 151.777344 348.160156 153.789062 344.421875 155.984375 C 342.851562 156.902344 332.101562 162.984375 319.300781 159.238281 C 315.957031 158.261719 313.386719 156.878906 311.730469 155.851562 C 312.058594 158.273438 312.65625 161.828125 313.832031 166.015625 C 315.246094 171.058594 316.828125 176.691406 319.425781 179.828125 C 325.566406 187.261719 343.03125 187.515625 354.128906 180.109375 C 372.292969 167.992188 369.53125 137.957031 365.988281 126.527344 C 365.535156 125.066406 364.976562 123.585938 364.976562 123.585938 Z M 364.976562 123.585938 " fill-opacity="1" fill-rule="nonzero"/><path fill="#b2763e" d="M 347.039062 87.214844 C 346.089844 82.738281 345.457031 80.335938 344.421875 79.277344 C 341.867188 76.699219 337.652344 77.167969 321.703125 81.164062 C 299.953125 86.632812 296.871094 88.515625 295.65625 91.859375 C 294.5625 94.800781 295.28125 98.277344 296.523438 103.390625 C 278.351562 112.46875 264.011719 123.546875 265.914062 130.175781 C 268.574219 139.425781 302.726562 139.425781 329.316406 132.480469 C 362.40625 123.839844 395.296875 101.433594 392.109375 91.585938 C 389.839844 84.578125 369.238281 83.703125 347.039062 87.214844 Z M 347.039062 87.214844 " fill-opacity="1" fill-rule="nonzero"/><path fill="#272122" d="M 348.167969 92.5 C 349.027344 96.785156 349.425781 99.101562 349.117188 100.21875 C 347.972656 104.207031 343.679688 105.582031 320.90625 111.785156 C 309.46875 114.910156 303.667969 116.382812 300.507812 113.601562 C 298.878906 112.207031 298.21875 110.222656 297.320312 106.671875 C 298.621094 106.347656 300.09375 106.472656 300.785156 106.507812 C 313.003906 107.277344 336.511719 98.347656 344.667969 93.820312 C 345.355469 93.4375 346.753906 92.644531 348.167969 92.5 Z M 348.167969 92.5 " fill-opacity="1" fill-rule="nonzero"/></svg>